<svg xmlns="http://www.w3.org/2000/svg" viewBox="0 0 119 118"><path d="M58.39 117.736c8.886 0 17.303-1.99 24.84-5.539-19.826-9.334-33.558-29.484-33.558-52.85 0-23.367 13.732-43.517 33.558-52.851A58.143 58.143 0 0 0 58.397.956C26.144.957 0 27.102 0 59.355c0 32.254 26.144 58.382 58.39 58.382Z"></path><path fill-rule="evenodd" clip-rule="evenodd" d="M83.23 112.197a59.458 59.458 0 0 1-2.308-1.149c-18.576-9.773-31.25-29.253-31.25-51.702 0-22.449 12.674-41.928 31.25-51.701.76-.4 1.529-.783 2.308-1.15A58.164 58.164 0 0 0 58.398.957C26.143.957 0 27.102 0 59.355c0 32.254 26.144 58.382 58.39 58.382a58.191 58.191 0 0 0 24.84-5.539Zm-4.696-.172c-18.41-10.341-30.862-30.05-30.862-52.679S60.124 17.01 78.534 6.667a56.189 56.189 0 0 0-20.137-3.71C27.248 2.957 2 28.205 2 59.354c0 31.148 25.248 56.382 56.39 56.382a56.198 56.198 0 0 0 20.144-3.711Z"></path><path fill-rule="evenodd" clip-rule="evenodd" d="M34.837 111.418a58.283 58.283 0 0 0 24.87 5.546c32.301 0 58.483-26.182 58.483-58.482S92.008 0 59.708 0a58.304 58.304 0 0 0-24.87 5.547c.779.366 1.548.75 2.308 1.15 18.606 9.78 31.304 29.297 31.304 51.784s-12.697 41.998-31.304 51.786c-.76.4-1.529.783-2.308 1.15Zm4.697-.172a56.3 56.3 0 0 0 20.174 3.718c31.195 0 56.482-25.287 56.482-56.482S90.903 2 59.708 2a56.32 56.32 0 0 0-20.173 3.718C57.975 16.071 70.45 35.816 70.45 58.482c0 22.668-12.475 42.406-30.915 52.764Z"></path></svg>