<svg xmlns="http://www.w3.org/2000/svg" viewBox="0 0 184 140"><path fill-rule="evenodd" clip-rule="evenodd" d="m84 126-3.445 1.689-21.245 10.414.002.541c0 .154-.035.304-.1.439l-1.039.554-.016-.002-57.215-8.011a1 1 0 0 1-.861-.989L0 68.875a1 1 0 0 1 1.139-.991l1.337.187L37.913 48.8l46.153 6.472L116.013 0 184 117.12H96.22l.004 1.45c0 .368-.2.706-.522.882l-8.854 4.814L84 126Zm9.398-69.42-7.195-1.009 29.814-51.58 64.509 111.129H96.215l-.153-58.31a1 1 0 0 0-1.478-.875l-1.186.645Zm-34.186 82.503a1.005 1.005 0 0 1-.41.435l21.753-11.829-21.343 11.394Zm.74-3.522 19.684-9.649 6.214-3.38 7.924-4.823.443-1.667-.15-57.549-3.416 1.858.016.094-.545.193-30.97 16.843.143 54.796.657 3.284Z"></path></svg>