<svg width="8" height="4" viewBox="0 0 8 4" fill="none" xmlns="http://www.w3.org/2000/svg">
<path d="M7.29733 0.0993799C7.51968 0.263137 7.56717 0.576137 7.40342 0.798484C7.27622 0.971188 7.149 1.13536 7.03741 1.27834C6.81465 1.56377 6.50799 1.94604 6.17482 2.32977C5.8438 2.71101 5.47678 3.10515 5.13413 3.4079C4.96338 3.55876 4.78691 3.69751 4.61482 3.80125C4.45646 3.89672 4.23887 4.00195 4.0008 4.00195C3.76274 4.00195 3.54512 3.89672 3.38676 3.80125C3.21468 3.69751 3.0382 3.55876 2.86745 3.4079C2.52481 3.10515 2.15779 2.71101 1.82677 2.32977C1.49359 1.94604 1.18693 1.56377 0.964175 1.27834C0.85259 1.13536 0.725367 0.971188 0.598171 0.798484C0.434413 0.576137 0.481909 0.263138 0.704256 0.0993802C0.793635 0.0335529 0.897667 0.00186702 1.00077 0.00195356L7.00082 0.0019533C7.10392 0.00186675 7.20795 0.0335526 7.29733 0.0993799Z" fill="#876CFC"/>
</svg>
