<svg width="16" height="16" viewBox="0 0 16 16" fill="none" xmlns="http://www.w3.org/2000/svg">
<path d="M1.33203 2C2.57454 2 3.1958 2 3.68585 2.20299C4.33926 2.47364 4.85839 2.99277 5.12904 3.64618C5.33203 4.13623 5.33203 4.75749 5.33203 6C4.08952 6 3.46826 6 2.97821 5.79701C2.3248 5.52636 1.80567 5.00723 1.53502 4.35382C1.33203 3.86377 1.33203 3.24251 1.33203 2Z" stroke="#7B828A" stroke-width="1.1" stroke-linejoin="round"/>
<path d="M8.00065 3.33594C7.17232 3.33594 6.75812 3.33594 6.43144 3.47126C5.99583 3.6517 5.64974 3.99778 5.46931 4.43339C5.33398 4.76009 5.33398 5.17426 5.33398 6.0026C6.16232 6.0026 6.5765 6.0026 6.90318 5.86728C7.33878 5.68684 7.68492 5.34076 7.86532 4.90515C8.00065 4.57845 8.00065 4.16428 8.00065 3.33594Z" stroke="#7B828A" stroke-width="1.1" stroke-linejoin="round"/>
<path d="M5.33203 6V9.33333" stroke="#7B828A" stroke-width="1.1" stroke-linecap="round"/>
<path d="M8.00065 9.33594H1.33398" stroke="#7B828A" stroke-width="1.1" stroke-linecap="round"/>
<path d="M8.00065 11.3359H1.33398" stroke="#7B828A" stroke-width="1.1" stroke-linecap="round"/>
<path d="M8.00065 13.3359H1.33398" stroke="#7B828A" stroke-width="1.1" stroke-linecap="round"/>
<path d="M10.668 12.3356C10.668 11.4988 11.3701 10.6718 11.8629 10.1944C12.1306 9.93518 12.5387 9.93518 12.8064 10.1944C13.2992 10.6718 14.0013 11.4988 14.0013 12.3356C14.0013 13.1561 13.3702 14 12.3346 14C11.2991 14 10.668 13.1561 10.668 12.3356Z" stroke="#7B828A" stroke-width="1.1"/>
</svg>
