<svg width="16" height="16" viewBox="0 0 16 16" fill="none" xmlns="http://www.w3.org/2000/svg">
<path d="M11.3327 1.33594V2.66927M7.99935 1.33594V2.66927M4.66602 1.33594V2.66927" stroke="#7B828A" stroke-width="1.1" stroke-linecap="round" stroke-linejoin="round"/>
<path d="M2.33203 6.66667C2.33203 4.46678 2.33203 3.36683 3.01545 2.68342C3.69886 2 4.79881 2 6.9987 2H8.9987C11.1986 2 12.2985 2 12.982 2.68342C13.6654 3.36683 13.6654 4.46678 13.6654 6.66667V10C13.6654 12.1999 13.6654 13.2998 12.982 13.9833C12.2985 14.6667 11.1986 14.6667 8.9987 14.6667H6.9987C4.79881 14.6667 3.69886 14.6667 3.01545 13.9833C2.33203 13.2998 2.33203 12.1999 2.33203 10V6.66667Z" stroke="#7B828A" stroke-width="1.1" stroke-linecap="round" stroke-linejoin="round"/>
<path d="M5.33398 9.9974H8.00065M5.33398 6.66406H10.6673" stroke="#7B828A" stroke-width="1.1" stroke-linecap="round"/>
</svg>
