<svg width="12" height="12" viewBox="0 0 12 12" fill="none" xmlns="http://www.w3.org/2000/svg">
<path opacity="0.4" d="M10.999 5.99805C10.999 3.23655 8.76052 0.998047 5.99902 0.998047C3.23752 0.998047 0.999023 3.23655 0.999023 5.99805C0.999023 8.75955 3.23752 10.998 5.99902 10.998C8.76052 10.998 10.999 8.75955 10.999 5.99805Z" fill="#00AB55"/>
<path fill-rule="evenodd" clip-rule="evenodd" d="M0.624023 5.99805C0.624023 8.96205 3.03502 11.373 5.99902 11.373C8.96302 11.373 11.374 8.96205 11.374 5.99805C11.374 3.03405 8.96302 0.623047 5.99902 0.623047C3.03502 0.623047 0.624023 3.03405 0.624023 5.99805ZM1.37402 5.99805C1.37402 3.44805 3.44902 1.37305 5.99902 1.37305C8.54902 1.37305 10.624 3.44805 10.624 5.99805C10.624 8.54805 8.54902 10.623 5.99902 10.623C3.44902 10.623 1.37402 8.54805 1.37402 5.99805ZM4.87862 7.69065C4.94612 7.80415 5.06862 7.87314 5.20012 7.87314H5.20062C5.20381 7.87314 5.20712 7.87302 5.2105 7.8729C5.214 7.87278 5.21756 7.87265 5.22113 7.87265C5.36013 7.86465 5.48362 7.78065 5.54162 7.65415C5.55312 7.62915 6.71012 5.13115 8.18062 4.32715C8.36212 4.22765 8.42912 3.99964 8.32962 3.81814C8.23012 3.63664 8.00213 3.56964 7.82063 3.66914C6.57813 4.34864 5.59013 5.95363 5.13313 6.80063C4.70263 6.34563 4.21312 6.06315 4.18612 6.04765C4.00662 5.94515 3.77812 6.00763 3.67512 6.18713C3.57262 6.36663 3.63463 6.59563 3.81413 6.69863C3.82113 6.70263 4.53562 7.11765 4.87862 7.69065Z" fill="#00AB55"/>
</svg>
