<svg width="16" height="16" viewBox="0 0 16 16" fill="none" xmlns="http://www.w3.org/2000/svg">
<path opacity="0.4" d="M1.33008 4.0026C1.33008 2.74552 1.33008 2.11698 1.7206 1.72646C2.11112 1.33594 2.73966 1.33594 3.99674 1.33594C5.25382 1.33594 5.88236 1.33594 6.27288 1.72646C6.66341 2.11698 6.66341 2.74552 6.66341 4.0026V5.33594C6.66341 6.59302 6.66341 7.22154 6.27288 7.61207C5.88236 8.0026 5.25382 8.0026 3.99674 8.0026C2.73966 8.0026 2.11112 8.0026 1.7206 7.61207C1.33008 7.22154 1.33008 6.59302 1.33008 5.33594V4.0026Z" fill="#67A045"/>
<path opacity="0.4" d="M9.33008 10.6667C9.33008 9.4096 9.33008 8.78107 9.72061 8.39053C10.1111 8 10.7397 8 11.9967 8C13.2538 8 13.8823 8 14.2729 8.39053C14.6634 8.78107 14.6634 9.4096 14.6634 10.6667V12C14.6634 13.2571 14.6634 13.8856 14.2729 14.2761C13.8823 14.6667 13.2538 14.6667 11.9967 14.6667C10.7397 14.6667 10.1111 14.6667 9.72061 14.2761C9.33008 13.8856 9.33008 13.2571 9.33008 12V10.6667Z" fill="#67A045"/>
<path d="M1.33008 4.0026C1.33008 2.74552 1.33008 2.11698 1.7206 1.72646C2.11112 1.33594 2.73966 1.33594 3.99674 1.33594C5.25382 1.33594 5.88236 1.33594 6.27288 1.72646C6.66341 2.11698 6.66341 2.74552 6.66341 4.0026V5.33594C6.66341 6.59302 6.66341 7.22154 6.27288 7.61207C5.88236 8.0026 5.25382 8.0026 3.99674 8.0026C2.73966 8.0026 2.11112 8.0026 1.7206 7.61207C1.33008 7.22154 1.33008 6.59302 1.33008 5.33594V4.0026Z" stroke="#67A045" stroke-width="1.1"/>
<path d="M1.33008 12.6641C1.33008 12.0428 1.33008 11.7322 1.43157 11.4871C1.5669 11.1605 1.82646 10.9009 2.15316 10.7655C2.3982 10.6641 2.70882 10.6641 3.33008 10.6641H4.66341C5.28466 10.6641 5.59529 10.6641 5.84032 10.7655C6.16702 10.9009 6.42659 11.1605 6.56192 11.4871C6.66341 11.7322 6.66341 12.0428 6.66341 12.6641C6.66341 13.2853 6.66341 13.5959 6.56192 13.841C6.42659 14.1677 6.16702 14.4273 5.84032 14.5626C5.59529 14.6641 5.28466 14.6641 4.66341 14.6641H3.33008C2.70882 14.6641 2.3982 14.6641 2.15316 14.5626C1.82646 14.4273 1.5669 14.1677 1.43157 13.841C1.33008 13.5959 1.33008 13.2853 1.33008 12.6641Z" stroke="#67A045" stroke-width="1.1"/>
<path d="M9.33008 10.6667C9.33008 9.4096 9.33008 8.78107 9.72061 8.39053C10.1111 8 10.7397 8 11.9967 8C13.2538 8 13.8823 8 14.2729 8.39053C14.6634 8.78107 14.6634 9.4096 14.6634 10.6667V12C14.6634 13.2571 14.6634 13.8856 14.2729 14.2761C13.8823 14.6667 13.2538 14.6667 11.9967 14.6667C10.7397 14.6667 10.1111 14.6667 9.72061 14.2761C9.33008 13.8856 9.33008 13.2571 9.33008 12V10.6667Z" stroke="#67A045" stroke-width="1.1"/>
<path d="M9.33008 3.33594C9.33008 2.71468 9.33008 2.40406 9.43154 2.15902C9.56688 1.83232 9.82648 1.57276 10.1531 1.43743C10.3982 1.33594 10.7088 1.33594 11.3301 1.33594H12.6634C13.2847 1.33594 13.5953 1.33594 13.8403 1.43743C14.167 1.57276 14.4266 1.83232 14.5619 2.15902C14.6634 2.40406 14.6634 2.71468 14.6634 3.33594C14.6634 3.95719 14.6634 4.26782 14.5619 4.51285C14.4266 4.83955 14.167 5.09912 13.8403 5.23444C13.5953 5.33594 13.2847 5.33594 12.6634 5.33594H11.3301C10.7088 5.33594 10.3982 5.33594 10.1531 5.23444C9.82648 5.09912 9.56688 4.83955 9.43154 4.51285C9.33008 4.26782 9.33008 3.95719 9.33008 3.33594Z" stroke="#67A045" stroke-width="1.1"/>
</svg>
