<svg width="16" height="16" viewBox="0 0 16 16" fill="none" xmlns="http://www.w3.org/2000/svg">
<path d="M1.33203 4.0026C1.33203 2.74552 1.33203 2.11698 1.72256 1.72646C2.11308 1.33594 2.74162 1.33594 3.9987 1.33594C5.25578 1.33594 5.88432 1.33594 6.27484 1.72646C6.66536 2.11698 6.66536 2.74552 6.66536 4.0026V5.33594C6.66536 6.59302 6.66536 7.22154 6.27484 7.61207C5.88432 8.00261 5.25578 8.00261 3.9987 8.00261C2.74162 8.00261 2.11308 8.00261 1.72256 7.61207C1.33203 7.22154 1.33203 6.59302 1.33203 5.33594V4.0026Z" stroke="#7B828A" stroke-width="1.1"/>
<path d="M1.33203 12.6641C1.33203 12.0428 1.33203 11.7322 1.43352 11.4871C1.56885 11.1605 1.82842 10.9009 2.15512 10.7655C2.40015 10.6641 2.71078 10.6641 3.33203 10.6641H4.66536C5.28662 10.6641 5.59724 10.6641 5.84228 10.7655C6.16898 10.9009 6.42854 11.1605 6.56387 11.4871C6.66536 11.7322 6.66536 12.0428 6.66536 12.6641C6.66536 13.2853 6.66536 13.5959 6.56387 13.841C6.42854 14.1677 6.16898 14.4273 5.84228 14.5626C5.59724 14.6641 5.28662 14.6641 4.66536 14.6641H3.33203C2.71078 14.6641 2.40015 14.6641 2.15512 14.5626C1.82842 14.4273 1.56885 14.1677 1.43352 13.841C1.33203 13.5959 1.33203 13.2853 1.33203 12.6641Z" stroke="#7B828A" stroke-width="1.1"/>
<path d="M9.33203 10.6667C9.33203 9.4096 9.33203 8.78107 9.72256 8.39053C10.1131 8 10.7416 8 11.9987 8C13.2558 8 13.8843 8 14.2748 8.39053C14.6654 8.78107 14.6654 9.4096 14.6654 10.6667V12C14.6654 13.2571 14.6654 13.8856 14.2748 14.2761C13.8843 14.6667 13.2558 14.6667 11.9987 14.6667C10.7416 14.6667 10.1131 14.6667 9.72256 14.2761C9.33203 13.8856 9.33203 13.2571 9.33203 12V10.6667Z" stroke="#7B828A" stroke-width="1.1"/>
<path d="M9.33203 3.33594C9.33203 2.71468 9.33203 2.40406 9.4335 2.15902C9.56883 1.83232 9.82843 1.57276 10.1551 1.43743C10.4002 1.33594 10.7108 1.33594 11.332 1.33594H12.6654C13.2866 1.33594 13.5972 1.33594 13.8423 1.43743C14.169 1.57276 14.4286 1.83232 14.5639 2.15902C14.6654 2.40406 14.6654 2.71468 14.6654 3.33594C14.6654 3.95719 14.6654 4.26782 14.5639 4.51285C14.4286 4.83955 14.169 5.09912 13.8423 5.23444C13.5972 5.33594 13.2866 5.33594 12.6654 5.33594H11.332C10.7108 5.33594 10.4002 5.33594 10.1551 5.23444C9.82843 5.09912 9.56883 4.83955 9.4335 4.51285C9.33203 4.26782 9.33203 3.95719 9.33203 3.33594Z" stroke="#7B828A" stroke-width="1.1"/>
</svg>
