<svg width="14" height="14" viewBox="0 0 14 14" fill="none" xmlns="http://www.w3.org/2000/svg">
<path d="M12.5686 6.44422C12.746 6.69289 12.8346 6.81726 12.8346 7.0013C12.8346 7.18534 12.746 7.30971 12.5686 7.55839C11.7717 8.67582 9.73667 11.0846 7.0013 11.0846C4.26592 11.0846 2.23086 8.67582 1.43399 7.55839C1.25664 7.30971 1.16797 7.18534 1.16797 7.0013C1.16797 6.81726 1.25664 6.69289 1.43399 6.44422C2.23086 5.32681 4.26592 2.91797 7.0013 2.91797C9.73667 2.91797 11.7717 5.32681 12.5686 6.44422Z" stroke="white" stroke-width="1.1"/>
<path d="M8.75 7C8.75 6.03347 7.96652 5.25 7 5.25C6.03347 5.25 5.25 6.03347 5.25 7C5.25 7.96652 6.03347 8.75 7 8.75C7.96652 8.75 8.75 7.96652 8.75 7Z" stroke="white" stroke-width="1.1"/>
</svg>
