<svg width="12" height="12" viewBox="0 0 12 12" fill="none" xmlns="http://www.w3.org/2000/svg">
<path d="M5.99951 11.002C8.76094 11.002 10.9995 8.76338 10.9995 6.00195C10.9995 3.24053 8.76094 1.00195 5.99951 1.00195C3.23809 1.00195 0.999512 3.24053 0.999512 6.00195C0.999512 8.76338 3.23809 11.002 5.99951 11.002Z" stroke="#0A1007" stroke-width="1.1" stroke-linecap="round" stroke-linejoin="round"/>
<path d="M7.50049 5C8.05277 5 8.50049 4.55228 8.50049 4C8.50049 3.44772 8.05277 3 7.50049 3C6.9482 3 6.50049 3.44772 6.50049 4C6.50049 4.55228 6.9482 5 7.50049 5Z" stroke="#0A1007" stroke-width="1.1" stroke-linecap="round" stroke-linejoin="round"/>
<path d="M3 6.24999L3.10472 6.36749C3.29918 6.58569 3.62701 6.52599 3.75 6.24999C3.87299 5.97399 4.20082 5.91429 4.39529 6.13249L4.5 6.24999" stroke="#0A1007" stroke-width="1.1" stroke-linecap="round" stroke-linejoin="round"/>
<path d="M7.92015 9L7.97555 8.82745C8.07845 8.507 7.8366 8.21365 7.4995 8.25C7.1624 8.28635 6.92055 7.993 7.02345 7.67255L7.07885 7.5" stroke="#0A1007" stroke-width="1.1" stroke-linecap="round" stroke-linejoin="round"/>
<path d="M9.50499 6.49805H9.50049" stroke="#0A1007" stroke-width="1.5" stroke-linecap="round" stroke-linejoin="round"/>
<path d="M4.50448 8.50195H4.5" stroke="#0A1007" stroke-width="1.5" stroke-linecap="round" stroke-linejoin="round"/>
<path d="M4.00399 4.00195H3.99951" stroke="#0A1007" stroke-width="1.5" stroke-linecap="round" stroke-linejoin="round"/>
</svg>
