<svg width="16" height="16" viewBox="0 0 16 16" fill="none" xmlns="http://www.w3.org/2000/svg">
<path d="M10 11.335C9.46701 11.7499 8.76681 12.0016 8.00001 12.0016C7.23315 12.0016 6.53302 11.7499 6 11.335" stroke="#7B828A" stroke-width="1.1" stroke-linecap="round"/>
<path d="M1.56898 8.81063C1.33363 7.27909 1.21596 6.51338 1.5055 5.83455C1.79503 5.15571 2.4374 4.69125 3.72214 3.76233L4.68204 3.06829C6.28024 1.91274 7.07933 1.33496 8.0014 1.33496C8.9234 1.33496 9.72253 1.91274 11.3207 3.06829L12.2806 3.76233C13.5654 4.69125 14.2077 5.15571 14.4973 5.83455C14.7868 6.51338 14.6691 7.27909 14.4338 8.81063L14.2331 10.1166C13.8995 12.2876 13.7327 13.3731 12.9541 14.0207C12.1755 14.6683 11.0371 14.6683 8.7606 14.6683H7.2422C4.96561 14.6683 3.82732 14.6683 3.04872 14.0207C2.27011 13.3731 2.1033 12.2876 1.76967 10.1166L1.56898 8.81063Z" stroke="#7B828A" stroke-width="1.1" stroke-linejoin="round"/>
</svg>
