<svg width="16" height="16" viewBox="0 0 16 16" fill="none" xmlns="http://www.w3.org/2000/svg">
<path d="M12 6.66406C12 6.66406 8 9.33073 8 13.9974" stroke="#7B828A" stroke-width="1.1" stroke-linecap="round" stroke-linejoin="round"/>
<path d="M6.23124 7.455C5.15726 8.2594 3.62752 8.17333 2.65103 7.19687C1.03526 5.58109 1.35841 2.02638 1.35841 2.02638C1.35841 2.02638 4.91312 1.70323 6.5289 3.319C7.16856 3.95869 7.42616 4.83579 7.30156 5.66667" stroke="#7B828A" stroke-width="1.1" stroke-linecap="round" stroke-linejoin="round"/>
<path d="M9.97456 8.545C9.09469 7.5888 9.11849 6.09989 10.0459 5.17245C11.4822 3.7362 14.6419 4.02345 14.6419 4.02345C14.6419 4.02345 14.9292 7.1832 13.4929 8.61947C12.9905 9.12187 12.3234 9.35907 11.6654 9.33113" stroke="#7B828A" stroke-width="1.1" stroke-linecap="round" stroke-linejoin="round"/>
<path d="M4 4.66406C4 4.66406 8 7.9974 8 13.9974" stroke="#7B828A" stroke-width="1.1" stroke-linecap="round" stroke-linejoin="round"/>
</svg>
