<svg width="16" height="16" viewBox="0 0 16 16" fill="none" xmlns="http://www.w3.org/2000/svg">
<path opacity="0.4" fill-rule="evenodd" clip-rule="evenodd" d="M6.52843 3.31908C7.59977 4.38975 7.59977 6.12575 6.52843 7.19641C5.45777 8.26775 3.72176 8.26775 2.65109 7.19641C1.03509 5.58108 1.35845 2.02641 1.35845 2.02641C1.35845 2.02641 4.9131 1.70308 6.52843 3.31908ZM13.4927 8.61945C12.5414 9.57145 10.998 9.57145 10.046 8.61945C9.09403 7.66745 9.09403 6.12412 10.046 5.17279C11.482 3.73612 14.6421 4.02346 14.6421 4.02346C14.6421 4.02346 14.9294 7.18345 13.4927 8.61945Z" fill="#67A045"/>
<path fill-rule="evenodd" clip-rule="evenodd" d="M2.29668 7.55093C2.92201 8.17693 3.75601 8.49692 4.59401 8.49692C5.08987 8.49692 5.58679 8.38491 6.04212 8.15751C6.78225 9.55184 7.49752 11.5372 7.49752 14.0013C7.49752 14.2773 7.72152 14.5013 7.99752 14.5013V14.5006C8.24495 14.5006 8.45058 14.3206 8.49051 14.0845C8.49546 14.0562 8.49805 14.0272 8.49805 13.9976C8.49805 9.67022 12.2294 7.11155 12.276 7.08022C12.5054 6.92689 12.5674 6.61623 12.4141 6.38689C12.2607 6.15689 11.9507 6.09489 11.7207 6.24822C11.6828 6.27349 10.9112 6.79303 10.0353 7.76505C9.66854 7.03687 9.79323 6.13251 10.3991 5.52666C11.0351 4.89066 12.1205 4.64934 12.9191 4.55868C13.4091 4.50268 13.8545 4.496 14.1631 4.502C14.1685 4.81067 14.1618 5.25666 14.1064 5.746C14.0164 6.54533 13.7745 7.63067 13.1385 8.26667C12.7558 8.64933 12.2285 8.856 11.6858 8.83267H11.6644C11.3978 8.83267 11.1764 9.04266 11.1651 9.31133C11.1531 9.58733 11.3671 9.82 11.6431 9.832C11.6844 9.834 11.7258 9.83467 11.7671 9.83467V9.834C12.5438 9.834 13.2951 9.52401 13.8451 8.97334C15.4291 7.39001 15.1518 4.11733 15.1391 3.97866C15.1171 3.738 14.9271 3.54801 14.6864 3.52601C14.5484 3.51401 11.2751 3.236 9.69179 4.82C8.6666 5.84519 8.55006 7.43272 9.36378 8.58516C8.83956 9.29261 8.42177 10.0395 8.11556 10.8118C7.76502 9.37678 7.22172 8.18613 6.69531 7.27318C6.67926 7.23236 6.65755 7.19302 6.63001 7.15627C6.62606 7.15097 6.62201 7.14577 6.61789 7.14068C6.55141 7.02837 6.48536 6.92055 6.42017 6.81729C5.39017 5.18596 4.36084 4.31929 4.3175 4.28329C4.1055 4.10729 3.79085 4.13596 3.61418 4.34729C3.43752 4.55862 3.46555 4.87396 3.67688 5.05129C3.67714 5.05154 3.67815 5.05241 3.67988 5.05391C3.73875 5.10498 4.63499 5.88246 5.53625 7.29111C4.69983 7.67965 3.67636 7.51787 3.00332 6.84425C2.27465 6.11625 1.99935 4.8796 1.89668 3.97026C1.83068 3.38493 1.82597 2.85493 1.83464 2.50493C2.18464 2.49626 2.71467 2.50093 3.3 2.56693C4.20933 2.66959 5.44601 2.9456 6.17467 3.67427C6.67534 4.17427 6.91132 4.89225 6.80599 5.59359C6.76466 5.86692 6.95264 6.12159 7.22598 6.16226C7.49864 6.20359 7.75333 6.0156 7.79466 5.74227C7.94733 4.7276 7.60531 3.69026 6.88131 2.96693C5.12065 1.20493 1.4673 1.51559 1.31263 1.52959C1.07196 1.55159 0.881961 1.74226 0.859961 1.98226C0.845294 2.13693 0.535346 5.79026 2.29668 7.55093Z" fill="#67A045"/>
</svg>
