<svg width="12" height="12" viewBox="0 0 12 12" fill="none" xmlns="http://www.w3.org/2000/svg">
<path d="M9 4.99805C9 4.99805 6 6.99805 6 10.498" stroke="#0A1007" stroke-width="1.1" stroke-linecap="round" stroke-linejoin="round"/>
<path d="M4.67343 5.59125C3.86794 6.19455 2.72064 6.13 1.98827 5.39765C0.776443 4.18582 1.01881 1.51978 1.01881 1.51978C1.01881 1.51978 3.68484 1.27742 4.89667 2.48925C5.37642 2.96901 5.56962 3.62684 5.47617 4.25" stroke="#0A1007" stroke-width="1.1" stroke-linecap="round" stroke-linejoin="round"/>
<path d="M7.48092 6.40875C6.82102 5.6916 6.83887 4.57492 7.53442 3.87934C8.61162 2.80215 10.9814 3.01759 10.9814 3.01759C10.9814 3.01759 11.1969 5.3874 10.1197 6.4646C9.74287 6.8414 9.24252 7.0193 8.74902 6.99835" stroke="#0A1007" stroke-width="1.1" stroke-linecap="round" stroke-linejoin="round"/>
<path d="M3 3.49805C3 3.49805 6 5.99805 6 10.498" stroke="#0A1007" stroke-width="1.1" stroke-linecap="round" stroke-linejoin="round"/>
</svg>
