<svg width="12" height="12" viewBox="0 0 12 12" fill="none" xmlns="http://www.w3.org/2000/svg">
<path d="M3.49951 8.75C3.49951 9.44035 2.93987 10 2.24951 10C1.55916 10 0.999512 9.44035 0.999512 8.75C0.999512 8.05965 1.55916 7.5 2.24951 7.5C2.93987 7.5 3.49951 8.05965 3.49951 8.75Z" stroke="#0A1007" stroke-width="1.1"/>
<path d="M8.5 8.75C8.5 9.44035 7.94035 10 7.25 10C6.55965 10 6 9.44035 6 8.75C6 8.05965 6.55965 7.5 7.25 7.5C7.94035 7.5 8.5 8.05965 8.5 8.75Z" stroke="#0A1007" stroke-width="1.1"/>
<path d="M9.99951 1.99805V7.50335C9.99951 7.9697 9.99951 8.2029 10.0756 8.38685C10.2379 8.7789 10.5943 8.9773 10.9995 8.99805" stroke="#0A1007" stroke-width="1.1" stroke-linecap="round" stroke-linejoin="round"/>
<path d="M2.00049 4.5H2.8737C3.30564 4.5 3.52161 4.5 3.71939 4.55518C3.91963 4.61105 4.10606 4.70793 4.26687 4.83967C4.42571 4.96981 4.54984 5.14655 4.79811 5.5C5.04639 5.85345 5.17049 6.0302 5.32934 6.1603C5.49014 6.29205 5.67659 6.38895 5.87684 6.4448C6.07459 6.5 6.29059 6.5 6.72249 6.5H7.50049" stroke="#0A1007" stroke-width="1.1" stroke-linecap="round" stroke-linejoin="round"/>
<path d="M9 6.49805H10" stroke="#0A1007" stroke-width="1.1" stroke-linecap="round" stroke-linejoin="round"/>
<path d="M2.00049 7.49805V2.99805C2.00049 2.44576 2.4482 1.99805 3.00049 1.99805H4.44805C4.80463 1.99805 5.14954 2.12508 5.42094 2.35636L7.14909 3.82904C7.37204 4.01903 7.50049 4.29723 7.50049 4.59016V7.49805M3.50049 8.74805H6.00049" stroke="#0A1007" stroke-width="1.1" stroke-linecap="round" stroke-linejoin="round"/>
</svg>
