<svg width="8" height="16" viewBox="0 0 8 16" fill="none" xmlns="http://www.w3.org/2000/svg">
<path d="M4 0.333333C2.52724 0.333333 1.33333 1.52724 1.33333 3C1.33333 4.47276 2.52724 5.66667 4 5.66667C5.47276 5.66667 6.66667 4.47276 6.66667 3C6.66667 1.52724 5.47276 0.333333 4 0.333333ZM3.64645 15.3536C3.84171 15.5488 4.15829 15.5488 4.35355 15.3536L7.53553 12.1716C7.7308 11.9763 7.7308 11.6597 7.53553 11.4645C7.34027 11.2692 7.02369 11.2692 6.82843 11.4645L4 14.2929L1.17157 11.4645C0.97631 11.2692 0.659728 11.2692 0.464466 11.4645C0.269204 11.6597 0.269204 11.9763 0.464466 12.1716L3.64645 15.3536ZM3.5 3L3.5 4L4.5 4L4.5 3L3.5 3ZM3.5 6L3.5 8L4.5 8L4.5 6L3.5 6ZM3.5 10L3.5 12L4.5 12L4.5 10L3.5 10ZM3.5 14L3.5 15L4.5 15L4.5 14L3.5 14Z" fill="#C4B7F8"/>
</svg>
