<svg xmlns="http://www.w3.org/2000/svg" id="b28e6af6-f530-4c02-ab90-f6e8709f8b07" data-name="Layer 1" width="675.1876" height="675.4789" viewBox="0 0 675.1876 675.4789"><path d="M0,427.4045A746.13,746.13,0,0,0,42.7189,555.9751c-7.7362,5.082-17.9292-.0216-25.4757-5.3741Q8.3941,544.3213,0,537.4457V676H345.2643a53.696,53.696,0,0,1-6.0288-7.7711c-4.2458-6.6771-6.8315-15.4887-2.9806-22.4183,6.1567-11.0872,22.3764-9.111,34.6012-5.806,37.5267,10.1544,76.13,18.3714,114.9627,16.4836s78.2974-14.8054,106.1005-42.0428c39.72-38.91,49.0628-98.4656,56.2866-153.6194,1.6416-12.549,1.0594-29.004-10.873-33.1635-6.0278-2.1046-12.5894.1383-18.687,2.036-55.1526,17.2435-118.3,6.2383-164.3668-28.6429-6.6271-5.017-13.5838-13.1987-9.93-20.684,3.42-7.0152,13.1789-7.1889,20.916-6.2976,44.5544,5.1146,90.7216,11.115,133.4376-2.6236,42.708-13.7287,80.783-53.7826,76.0921-98.4542-1.8025-17.1581-15.8791-36.5106-32.3492-31.4692-9.7732,2.9849-15.1494,13.17-22.7862,19.9775-20.3627,18.1455-52.016,9.7533-77.5972.3513-5.5312-2.0282-11.365-4.2783-14.9242-8.976-3.4922-4.6018-4.15-10.75-3.9762-16.5284.7831-25.84,16.7825-50.658,39.9685-62.0142,24.24-11.8736,58.863-13.5586,67.6244-39.1213,7.4588-21.7641-10.9576-43.2945-15.1626-65.9029-4.0359-21.7316,3.5171-49.1219-13.9269-62.6682-10.8419-8.4119-26.179-6.452-39.6986-4.0765Q511.1478,11.49,460.3094,20.4191c-22.0321,3.8709-47.06,9.8258-57.5024,29.642-5.9355,11.28-5.661,24.6861-5.2385,37.4228q1.7862,54.0327,3.59,108.0634l-1.2337-1.8737c2.4757,12.7294-16.7749,19.0072-28.2768,13.0417-21.97-11.3905-26.1236-40.5216-27.5714-65.2707-1.52-25.8913-2.69-53.4014,9.935-76.0528-32.8305,20.3708-72.5284,25.1753-110.2729,33.32-37.7456,8.15-77.3639,21.9578-99.7231,53.4994-11.4881,16.2074-17.32,35.719-21.5624,55.1305-10.0554,45.963-12.93,95.3792-38.7534,134.6916-27.0584-12.46-37.3071-45.7363-39.2138-75.5109A253.31,253.31,0,0,1,74.5334,130.179q-26.5047,26.64-53.0149,53.28C14.0533,190.9625,6.4874,198.6255,0,206.9792Zm523.9166,88.6474,4.524-3.68a190.5,190.5,0,0,1,34.2636,3.7622c7.85,1.5927,16.9352,4.9719,18.7359,12.7875,1.2517,5.3808-1.7574,11.0647-6.1321,14.4264-4.3814,3.366-9.8923,4.8338-15.3065,5.9017-10.7567,2.1277-22.8308,2.72-31.7217-3.6831C519.3765,539.1663,514.468,521.6224,523.9166,516.0519ZM333.2331,486.3753c2.14-4.5549,5.3668-14.7467,8.645-10.92q60.2175,13.2464,120.4262,26.5082c2.7624.6047,5.6247,1.26,7.8437,3.0218,5.1146,4.0708,4.3865,12.651.0377,17.5363-4.3557,4.89-11.078,6.8473-17.5367,7.921-35.3235,5.8859-70.6426-8.0732-103.4555-22.4164-4.6078-2.013-9.3452-4.1293-12.792-7.793S331.0879,490.9291,333.2331,486.3753ZM212.7864,240.3283c3.2582-14.2315.17-16.8673,3.4236-31.1056,4.2547-10.0084,3.5582-21.4838,7.0361-31.7858,3.4734-10.3088,14.5554-19.917,24.4256-15.3784,3.96,1.8227,6.7045,5.53,8.9313,9.2845,17.6761,29.921,11.0683,67.4791,12.4816,102.2345,1.1085,27.4971,7.6052,54.4871,15.4391,80.8622.9663,3.2416,1.9507,6.7264.9211,9.9525-1.32,4.1277-5.5675,6.5881-9.7124,7.8266-20.09,6.0059-41.0314-8.3362-52.81-25.6938a102.39,102.39,0,0,1-17.4455-53.1339C204.7747,275.4976,208.795,257.7905,212.7864,240.3283ZM65.1668,398.24c5.3186-8.8714,15.1535-16.2867,25.3026-14.4038,4.6074.8626,8.6917,3.5291,12.25,6.5859A56.7385,56.7385,0,0,1,122.19,431.1761l.9115,3.0607c3.4389,9.2673.6831,7.59-.0843,17.4519-.773,9.8609-6.7111,20.002-16.2436,22.5943-7.441,2.021-15.3849-.8587-21.92-4.9629C61.8186,454.8482,51.16,421.6077,65.1668,398.24Z" transform="translate(0 -0.5211)" style="fill-rule:evenodd"></path></svg>