<svg xmlns="http://www.w3.org/2000/svg" id="e4dc8462-9ea7-4985-81ce-70deb08e1d8d" data-name="Layer 1" width="688" height="688" viewBox="0 0 688 688"><rect id="ef99ed5c-9d52-44d6-9682-ef27a788a599" data-name="path-1" width="688" height="688" style="fill:none"></rect><path d="M424.3882,375.5494c-.0636,15.4422,2.839,31.8051,13.1017,43.3346,14.4374,16.2189,38.5041,18.3028,60.0736,20.69,21.5741,2.3865,46.0688,8.34,55.835,27.7327a826.856,826.856,0,0,1-101.7145,6.0025Q489.5491,562.2,535,647.6016c22.7285,42.7086,51.6543,88.5144,98.4855,100.5733,39.2819,10.11,87.66-4.5754,116.8349,23.6091a289.0239,289.0239,0,0,1-154.7079,5.6453c9.1916,18.3167,18.4638,36.75,28.6515,54.5707H724.442c14.3173-5.1551,30.5586-4.0661,45.608,0H960V722.2668c-16.0858-29.4323-34.933-58.205-52.7969-85.3881-34.5894-52.6313-46.6256-86.1521-78.9467-140.2-14.8427-24.8258-35.5523-77.98-63.898-72.2982,5.0566,27.5532,9.87,57.22-2,82.5869-11.5262,24.6311-39.0193,40.8087-66.1336,38.9161-2.4546-.1755-5.0679-.5534-6.8807-2.2051-3.68-3.3361-1.9966-9.3374-.08-13.9109,14.196-33.9209,26.6636-69.28,28.2945-106.0228,3.0158-67.5964-34.2283-135.4744-92.8419-169.2366-6.4933-3.739-15.24-6.9093-20.9073-2.0171-3.0421,2.6172-4.1231,6.8072-4.8205,10.7615-3.0785,17.5115-1.6551,35.6071-5.0394,53.0609-3.38,17.4532-13.3079,35.423-30.2638,40.7527-5.2966,1.6671-11.9441,1.59-15.4075-2.7569-2.0954-2.6237-2.5014-6.19-2.6024-9.5478-1.18-40.2962,30.29-76.6547,27.1782-116.8478-.334-4.3013-1.1082-8.6911-3.33-12.3853-2.7114-4.507-7.2711-7.5264-11.6856-10.3893Q530.9281,187.64,504,170.146c-19.8379-12.8923-41.1875-26.25-64.8457-26.1357-3.5611.0153-7.4489.4871-9.9427,3.0327-2.3865,2.4282-2.8689,6.1-3.1266,9.4942-3.4968,46.0893,11.19,92.0735,8.1282,138.1905C432.4157,321.8321,424.5026,348.3854,424.3882,375.5494ZM801.8565,535.7467l7.3278-3.4608q48.4136,80.1975,96.8315,160.3944c3.8657,6.4072,7.6759,14.9187,3.067,20.8152a15.2351,15.2351,0,0,1-6.2123,4.2811c-18.5709,7.9558-40.9662.9479-55.9812-12.5754-15.0249-13.5274-23.9685-32.4586-31.1924-51.3474A432.0038,432.0038,0,0,1,793.38,572.2394C791.1505,559.17,790.7858,543.0182,801.8565,535.7467Zm-176.8157-117.04q.3987-21.26.7985-42.5053c.1809-9.7973.7557-20.5983,7.4711-27.6485,7.5722-7.9478,20.9111-7.9187,30.2606-2.1794,9.3443,5.735,15.2274,15.8953,18.9064,26.3052a96.7465,96.7465,0,0,1-1.1625,66.9933c-3.5495,9.0283-8.9953,17.9768-17.6958,22.1135-14.0392,6.6651-35.7668-.3078-39.7735-15.4782C622.083,439.63,625.0408,418.7065,625.0408,418.7065ZM562.9819,529.8827c8.2231,6.34,14.6806,14.707,20.53,23.3251a261.7831,261.7831,0,0,1,14.6562,24.3576c2.7071,5.1062,5.3177,10.8716,3.9459,16.49-1.4259,5.8544-6.9151,9.89-12.6005,11.7365-14.9983,4.8821-33.0449-3.7818-38.784-18.6156l-.7786,4.6048a378.1484,378.1484,0,0,1-28.5733-40.1595c-3.5533-5.7583-7.0914-12.4094-5.4771-18.9923,1.8987-7.7634,10.4229-12.1262,18.3367-12.63C544.5465,519.3383,554.7585,523.5379,562.9819,529.8827ZM491.8185,288.2946a22.01,22.01,0,0,0,1.6063-4.8827c.0271-.183.0494-.3655.0618-.5519.1548-2.3324-.1151-4.7606-.11-7.1037a203.7615,203.7615,0,0,1,2.0478-28.385c.0222-.1825.0485-.3749.08-.5582.6731-4.611,1.5887-9.4048,4.4774-13.0834,4.2454-5.3987,11.6156-7.0747,18.39-8.3944,4.2529-.8282,9.5843-1.2519,12.0068,2.3185a10.63,10.63,0,0,1,1.3273,5.6,141.7317,141.7317,0,0,1-12.9536,65.3948c-3.4853,7.5227-8.1331,15.2136-15.753,18.5745a7.3082,7.3082,0,0,1-5.2356.6433c-1.7327-.6087-2.8906-2.1942-3.8215-3.7568-2.5556-4.2715-5.5865-9-5.4691-14.1662C488.5556,295.8453,490.3285,292.0457,491.8185,288.2946Z" transform="translate(-272 -144)" style="fill-rule:evenodd"></path></svg>