<svg xmlns="http://www.w3.org/2000/svg" id="b27f68e1-b890-42e2-b6f1-0328c49a8b75" data-name="bbff4aac-45ff-4917-b5ee-fef3fc4ec4ae" width="506" height="506" viewBox="0 0 506 506"><path d="M27.4254,373.8286c29.7469,32.6683,61.8651,44.6591,104.4714,56.6979A474.6605,474.6605,0,0,1,202.28,456.6631h140.649c-6.39-3.5876-12.1186-8.4486-17.9547-12.7909q-11.9817-8.9214-23.9662-17.8379c-4.1954-3.1231-8.4-6.2312-12.5852-9.3654-4.3349-3.2466-7.3-6.2675-7.8653-11.8369-.2511-2.4607,2.1413-5.4477,4.5713-5.8828,18.219-3.2938,36.4239,2.3087,51.5094,12.5327,16.8625,11.429,29.4454,27.5449,42.6866,42.7221a6.39,6.39,0,0,1,1.3548,2.4591H505.5236V388.3143c-4.83-13.75-9.3844-27.6036-13.4621-41.5815-5.6072-19.213-9.2725-39.0479-5.3944-58.9731,1.509-7.76,13.3837-4.505,11.8752,3.2249-3.6725,18.8835.9951,37.9374,6.4374,55.9793.1784.5915.3642,1.1809.5438,1.772V172.9273C470.2177,80.943,430.0649-8.3335,404.1636.6217c-37.6789,13.0306,26.3186,150.8669,37.93,226.7258,3.32,21.7019,15.2041,61.1848.5125,77.5794-28.8249,3.489-72.55-135.2273-105.3386-194.7828-13.7955-25.0519-32.0931-50.5319-59.5777-58.7167-5.3482-1.5862-11.3742-2.4021-16.33.1748-8.523,4.4307-9.5924,16.1-8.3761,25.5894,2.8838,22.4242,12.1549,43.4587,21.6726,63.97,18.8211,40.5545,48.2759,99.17,69.802,138.3644,2.7331,4.98,4.941,12.3791.0785,15.35-3.5871,2.1934-8.1542-.1271-11.6323-2.477-32.724-22.1057-67.578-48.21-99.7645-71.0862C174.9888,179.9949,96.2139,142.3567,24.7328,141.65c-7.31-.07-11.3614-4.7345-13.34,2.2873-1.01,3.5777.3927,7.3518,1.9589,10.722,11.9458,25.7169,34.1614,45.1292,57.0077,61.9926,64.5543,47.6354,139.5267,81.7445,196.875,137.79,5.1672,5.0519,10.59,11.7547,8.5807,18.6956-2.1326,7.368-11.1693,9.9926-18.8328,10.6656-80.7684,7.075-153.251-67.15-233.511-55.6553-8.0244,1.1508-16.5587,3.5561-21.4958,9.9774C-7.09,349.9247,17.4217,362.8484,27.4254,373.8286ZM438.5232,362.391c3.5541-.9522,6.27,1.25,7.5378,4.3321q10.34,25.19,21.32,50.12c1.3308,3.031.9024,6.5885-2.2038,8.4032-2.61,1.5251-7.0866.8742-8.4319-2.1784q-11.6232-26.4342-22.5842-53.156C432.9,366.8407,435.6,363.1744,438.5232,362.391ZM266.1269,305.2488c-5.9766-4.9156-14.3113-13.0781-6.6561-20.7316,6.0357-6.0339,17.2667-4.2455,24.53-2.0165,15.0414,4.6167,27.6453,14.9721,38.5489,25.9313,12.3569,12.4161,23.35,26.5187,37.6285,36.8871a7.5863,7.5863,0,0,1,2.5384,3.1267,5.9259,5.9259,0,0,1,2.4494,6.4916c-.7682,2.9244-4.4919,5.544-7.5678,4.3144A348.2691,348.2691,0,0,1,266.1269,305.2488Z" transform="translate(0.4764 49.3369)" style="fill-rule:evenodd;opacity:0.07000000029802322;isolation:isolate"></path><rect width="506" height="506" style="fill:none"></rect></svg>