<svg xmlns="http://www.w3.org/2000/svg" id="bb379890-8687-4269-b91c-47be09d2c0a7" data-name="Layer 1" width="694" height="694" viewBox="0 0 694 694"><path d="M44.2637,418.8348C29.3137,434.1105,14.2864,449.4956,0,465.4582v90.4071c7.85.0144,16.0131,5.6138,22.4756,10.99l4.267,5.1685c17.119,15.7341,23.13,40.3674,23.3851,63.6158.2038,19.5087-3.0049,38.8926-4.2133,58.36H211.6137a73.0824,73.0824,0,0,1,5.901-29.96c9.1138-21.2872,26.3522-38.0334,44.1826-52.9071A499.0814,499.0814,0,0,1,342.04,556.4711c13.3649-7.3023,30.7681-13.7457,42.772-4.5177l6.477,6.6147Q334.4218,626.2822,277.5569,694h44.9146c40.0438-49.9458,70.8458-75.7524,114.5311-127.5288,21.4764-25.4489,71.602-67.9019,54.8085-96.5891-28.1081,15.8322-58.6085,32.1933-90.67,28.8014-31.1318-3.2932-59.034-27.1169-67.12-57.3063-.7273-2.7345-1.2938-5.7175-.1738-8.308,2.2552-5.2529,9.42-5.6731,15.1166-5.3044,42.2454,2.7116,85.41,3.0046,126.0264-9.0036,74.7283-22.0747,134.6979-88.0269,149.5254-164.4169,1.6412-8.4621,1.82-19.1606-5.6273-23.4877-3.9879-2.3258-8.9545-1.9295-13.521-1.2046-20.2187,3.2211-39.3888,11.5558-59.659,14.4227-20.2679,2.8718-43.5487-1.1825-55.6966-17.6186-3.7972-5.1332-6.2011-12.3894-2.7638-17.7855,2.0727-3.2623,5.8037-5.0413,9.4218-6.4106,43.4334-16.3973,94.7972,4.1817,137.3953-14.2775,4.5584-1.9764,9.0483-4.4646,12.2391-8.2659,3.8927-4.6383,5.4741-10.7284,6.9393-16.6017q8.9844-35.8212,17.955-71.66c6.614-26.404,13.1684-54.6258,4.1916-80.3052-1.3492-3.866-3.3177-7.916-7.0226-9.6725-3.5368-1.684-7.7156-.8312-11.5073.1616C605.37,15.124,560.7974,48.34,509.4389,62.3077c-30.1841,8.212-62.0566,9.568-91.676,19.6322-16.8374,5.7228-33.5673,15.0158-42.2805,30.4981-12.2569,21.78-5.52,48.728-.0479,73.0743,5.4744,24.3513,8.1577,53.2158-9.3024,71.1075a949.2772,949.2772,0,0,1-44.597-108.336Q238.9187,222.7926,162.94,304.24c-37.9967,40.73-77.0465,89.36-72.6522,144.799,3.6917,46.5,37.7839,93.5908,18.0136,135.8819A331.8252,331.8252,0,0,1,44.2637,418.8348Zm467.2-283.4952c3.683-4.31,7.6867-9.2964,13.3079-11.1022,4.4554-1.4449,9.2035-.982,13.7963-.8014a25.3966,25.3966,0,0,0,5.857-.1187c.2074-.04.4126-.0841.6184-.1406,2.575-.7072,5.099-1.9012,7.6312-2.771a236.7837,236.7837,0,0,1,31.3972-8.4328c.2052-.0445.4224-.0885.632-.1232,5.2242-1.0083,10.7339-1.8274,15.7573-.1343,7.3744,2.4912,11.8655,9.6922,15.7552,16.3937,2.4416,4.2072,4.8388,9.7109,1.8645,13.6178-1.3433,1.7577-3.4969,2.6931-5.5645,3.5024a164.173,164.173,0,0,1-75.33,10.6814c-9.3916-.89-19.3877-2.9522-25.7891-9.7887-1.3848-1.4742-2.6148-3.2926-2.6-5.32C508.8237,138.7345,510.1147,136.9123,511.4634,135.34ZM416.0551,326.8413c6.5357-4.3838,30.1879-8.925,30.1879-8.925q23.0574-7.4407,46.1-14.8749c10.6248-3.4319,22.4784-6.8085,32.5872-2.1378,11.3966,5.2671,16.3548,19.7412,13.6677,32.0041-2.6844,12.2558-11.432,22.3974-21.2729,30.2415a109.556,109.556,0,0,1-72.6231,23.5485c-11.0562-.5054-22.7355-3.0964-30.4476-10.9984C401.8209,362.9449,401.207,336.8036,416.0551,326.8413ZM229.0559,297.7075A431.86,431.86,0,0,1,261.785,251.81c4.8961-5.9919,10.7625-12.2992,18.48-12.9972,9.0991-.8287,16.9977,6.7874,20.4978,15.1768,4.5655,10.9273,3.841,23.5562.0553,34.8274-3.7807,11.2691-10.411,21.3783-17.54,30.9215a298.814,298.814,0,0,1-20.85,24.94c-4.5073,4.8323-9.763,9.8051-16.3475,10.4075-6.86.6313-13.2715-3.8171-17.39-9.2924-10.8777-14.4394-8.2548-37.2189,5.6328-48.9539Z" style="fill-rule:evenodd"></path><rect width="694" height="694" style="fill:none"></rect></svg>