<svg xmlns="http://www.w3.org/2000/svg" id="b3a6fc41-e973-4712-a9d9-139577aad6e8" data-name="Layer 1" width="750" height="750" viewBox="0 0 750 750"><path d="M0,466.7535c36.746,45.1954,73.8013,90.1015,89.39,145.527,2.0183,7.172,2.81,16.6156-3.5954,20.451-3.2174,1.9229-7.2344,1.6346-10.9172,1.0626C45.08,629.1374,20.936,610.6514,0,588.1232V717H719.0608a70.3384,70.3384,0,0,0,.5084-13.4871c-2.2566-37.7291-44.1654-70.275-78.88-55.3676-17.4248,7.4831-29.7091,24.218-47.2091,31.5094-23.4226,9.7536-50.0025.4533-72.7578-10.4662a519.1155,519.1155,0,0,1-70.48-40.926c-10.6015-7.3276-22.2339-18.8473-17.9642-31.1136,3.2593-9.3622,14.3046-13.35,24.1132-14.3578,35.6123-3.6609,69.6529,15.3675,105.3779,16.9933,43.1191,1.9619,84.3295-22.1029,113.4152-54.359,29.0764-32.2537,48.0424-72.1685,66.5947-111.4474,7.7042-16.31,13.5871-39.6693-1.684-48.9861-13.711-8.369-30.5085,3.5965-42.8257,14.095-46.8679,39.9625-102.4195,67.9676-157.3708,95.5773-9.9982,5.0261-20.7189,10.19-31.7934,8.9549-23.6727-2.6345-34.278-34.9475-23.3311-56.29,10.948-21.3376,35.0508-32.4168,58.2782-37.9676,23.2261-5.5554,47.6251-7.3052,69.3491-17.317,24.4487-11.2622,43.2509-31.9668,59.8535-53.2424,20.0958-25.75,38.4892-54.1927,44.26-86.3148,5.7719-32.1176-3.66-68.6627-30.154-87.3174a201.17,201.17,0,0,1-48.3379,99.6916C613.32,292.33,571.61,313.0327,540.7056,293.3231c-3.728-2.3789-7.2423-5.4233-8.9558-9.5136-4.5719-10.9075,5.1538-22.2109,13.7778-30.3853A593.4142,593.4142,0,0,0,652.7812,116.5391c16.5866-29.1581,30.7016-65.5819,14.8442-94.9168-5.7563-10.654-15.9609-19.5411-28.002-20.7051C629.4005-.0681,619.41,4.5017,610.69,10.0239c-44.6411,28.2625-67.3381,80.7117-83.4874,131.0986-16.1446,50.3857-29.319,103.7986-63.2817,144.3812-27.6959-19.7121-52.27-47.4284-57.2261-81.2329-4.6758-31.8617,8.5728-63.3767,14.4142-95.1183s.7456-70.6919-27.5386-85.7487c-27.7019-14.7439-64.5972,3.7591-78.195,32.323-13.599,28.5593-8.6848,62.6715,2.8681,91.9542,11.55,29.2811,29.2057,55.7292,41.633,84.638a261.244,261.244,0,0,1,13.8553,162.5661c-1.03,4.3143-2.293,8.8225-5.4164,11.9714-5.2573,5.2951-13.8161,4.97-21.06,3.42-32.55-6.9708-60.4042-32.3866-70.4064-64.2344-9.0447-28.8031-4.0429-59.9828-5.264-90.213a216.8746,216.8746,0,0,0-42.66-120.33c-5.592-7.47-11.8931-14.7517-20.1792-19.0045-19.9294-10.2253-45.962,1.0833-58.17,20.0807-12.2106,18.9958-13.2508,43.1325-10.2028,65.435C155.4088,312.2337,257.8862,402.92,246.1386,513.7352c-1.2,11.3167-4.3981,23.7133-13.9111,29.9452-8.6051,5.6391-19.7886,4.5328-29.87,2.766-34.735-6.0844-72.6247-21.25-85.0306-54.3492-13.4172-35.7955,8.9279-75.3841,6.4957-113.6208-3.2868-51.6846-49.8683-89.4082-66.295-138.4078C53.4,227.7737,50.912,214.25,42.179,204.7126,31.8986,193.4864,15.0546,190.78,0,194.28Zm488.3984-116.295-6.36,9.7712c12.5026-16.3448,36.2766-22.6239,54.4544-14.3881,2.4786,1.1243,4.9717,2.6114,6.2171,5.0557,3.0855,6.0724-3.1929,12.9742-9.236,16.3183-7.7861,4.31-16.2972,6.9861-24.798,9.4173-5.3243,1.5238-10.8408,2.9727-16.2583,2.2235-5.4209-.7432-10.77-4.2258-12.0817-9.6051C478.679,362.4376,483.7157,355.8071,488.3984,350.4585ZM350.1565,670.96a99.3952,99.3952,0,0,1,52.712,21.222c3.4514,2.7671,7.05,6.79,5.83,11.04-1.02,3.54-4.91,5.3219-8.4461,6.3625-29.2687,8.6341-60.3013-2.8109-88.6661-14.0894-2.2277-.8815-4.5405-1.8316-6.1212-3.6315-3.5642-4.0619-1.6739-10.8626,2.485-14.31,4.1607-3.4507,9.7741-4.4282,15.1085-5.2865l-5.0922,8.8941C325.008,671.7225,338.4313,669.8875,350.1565,670.96ZM261.8932,413.9548c.0309-2.93.1093-6.0415,1.6909-8.5146,2.2271-3.4711,6.9279-4.656,10.9317-3.8278,4.0009.8265,7.4532,3.2624,10.6851,5.7535,16.2274,12.4988,30.5309,28.2634,37.9905,47.42s7.2886,42.0158-3.6116,59.5971c-4.0829,6.5859-10.0611,12.5863-17.619,14.1059-12.9625,2.6048-24.5651-8.7033-30.4761-20.5156a80.863,80.863,0,0,1-8.1959-42.4814c.7332-9.013,2.9693-17.8459,4.114-26.8193l-5.8159,7.97Q261.74,430.2985,261.8932,413.9548ZM169.1709,610.2916l-2.3791,6.3073c5.7925-5.9535,15.2128-8.9285,22.1376-4.5854,4.8191,3.015,7.2532,8.6427,9.1546,14.01a181.9638,181.9638,0,0,1,8.946,37.4826c1.09,8.45,1.5483,17.26-1.317,25.2991-2.8636,8.0361-9.7536,15.1551-18.2209,15.9779-5.9572.5814-11.8036-1.9449-16.78-5.2486a54.3231,54.3231,0,0,1-1.541-89.2424ZM38.0056,341.34c2.4209-7.1267,7.758-14.5273,15.2626-14.62,9.2892-.1158,14.5556,10.47,16.8121,19.4942a172.9036,172.9036,0,0,1,2.5727,71.4549c-.4406,2.5261-1.0464,5.2374-2.9756,6.9235-3.7465,3.2729-9.5877.6531-13.3863-2.5305a56.7277,56.7277,0,0,1-19.4564-49.4449l1.0371,1.3124A51.66,51.66,0,0,1,38.0056,341.34Z" transform="translate(0 33)" style="fill-rule:evenodd"></path><rect width="750" height="750" style="fill:none"></rect></svg>