<svg xmlns="http://www.w3.org/2000/svg" id="af3ae871-4dc5-427c-8bc5-3f27006b3c70" data-name="Layer 1" width="795" height="795" viewBox="0 0 795 795"><path d="M688.2932,1146H1127V742.85c-26.8494-41.4951-54.1763-82.6467-81.3348-123.7072q-49.071-74.1848-99.1694-147.6882c-9.7138-14.2621-19.5026-28.4679-29.2306-42.7215-15.0336-22.03-31.9784-27.1285-59.8086-24.0829-37.7823,4.1309-10.1,81.4265-3.9872,103.5713A1457.0613,1457.0613,0,0,0,921.3361,700.403q20.3022,46.7784,43.8406,92.0706c12.7731,24.57,40.4729,65.0383,42.8321,68.891,32.9979,53.9063-111.8645-54.3213-164.2941-88.385C790.1716,738.192,735.61,704.3751,675.559,681.76c-85.2325-32.1022-176.0066-45.925-266.7931-33.8107-15.4106,2.0573-30.99,4.8922-44.8592,11.9078-4.2965,2.1692-8.8425,5.3994-9.3272,10.1718-.61,5.9917,5.3448,10.3435,10.5674,13.3542,60.1846,34.7395,120.5441,69.2835,179.7309,105.459,41.5149,25.369,82.84,51.13,125.6585,74.2972,37.9152,20.514,78.38,32.4862,116.6718,51.4659,25.9084,12.8375,49.9145,36.7985,49.006,65.6555-.1739,5.487-1.3773,11.1969-4.9242,15.4071-3.6907,4.3836-9.3736,6.5259-14.9061,8.05-61.9915,17.0747-140.0636-13.8028-198.9294-32.7193-75.9661-24.4141-164.1772-58.4351-245.4213-46.3209-11.43,1.7041-23.1543,4.721-31.955,12.2027-4.4917,3.8189-8.2254,9.2131-7.9332,15.0875.1732,3.4986,1.7547,6.767,3.4286,9.8443,25.6683,47.0867,74.7093,67.3543,121.4835,88.1814,49.2,21.9093,99.7548,40.608,149.581,61.032C634.0411,1122.2562,661.22,1134.0061,688.2932,1146Zm355.2009-29.7314,1.0249-1.4568c5.7562,10.4013,2.2577,1.2461,8.0151,11.6513-5.6215,5.3579-14.7471,3.1315-22.0713.563-42.7971-14.9984-62.6316-37.03-104.6669-54.03-18.5664-7.5115-37.3957-15.6773-51.9954-29.3554-2.7771-2.6024-7.12-5.7107-6.106-9.38.5123-1.8593,3.0314-6.1018,4.9561-5.9307C933.8973,1033.8641,995.94,1072.2839,1043.4941,1116.2686ZM813.6557,842.8464c37.6342-8.7807,77.6832,2.4629,110.7223,22.36,33.0406,19.8884,60.2875,47.8458,87.1349,75.483l-3.0455-.3293a124.8,124.8,0,0,1-90.6518-17.8625c-12.7322-8.3229-23.7823-18.9129-35.2185-28.93A503.7491,503.7491,0,0,0,813.6557,842.8464Z" transform="translate(-332 -351)" style="fill-rule:evenodd;opacity:0.1"></path><rect width="795" height="795" style="fill:none"></rect></svg>