<svg xmlns="http://www.w3.org/2000/svg" id="a65a7dfd-a028-4630-9e96-ad08200d81fd" data-name="Layer 1" width="718.5582" height="712.7468" viewBox="0 0 718.5582 712.7468"><path d="M196.21,586.8715q4.1281-12.6729,7.9926-25.4262c7.67-25.4322,14.25-52.29,9.0953-78.9028-2.1174-10.8937,14.5938-15.4889,16.7119-4.5531,5.4437,28.08.2731,56.0387-7.63,83.1215-7.7385,26.5307-16.6841,52.7466-26.17,78.7131V785.109H521.6259c12.6189-13.7983,28.1392-26.1094,38.6146-32.33,53.5586-31.8134,108.9159-56.8117,168.876-73.8078s105.1619-33.9176,147.0409-79.9809c14.0836-15.4823,48.5828-33.7137,35.835-50.339-6.9429-9.047-18.95-12.4314-30.24-14.0479-112.9272-16.1481-214.9679,88.515-328.6135,78.5972-10.7829-.9433-23.4968-4.6365-26.4927-15.0195-2.8222-9.7814,4.8123-19.2321,12.0864-26.3559,80.7329-79.0292,186.25-127.1534,277.1173-194.3346,32.1586-23.7829,63.4314-51.1578,80.2574-87.4117,2.2062-4.7511,4.1821-10.0714,2.7636-15.1132-2.78-9.8954-8.4838-3.3178-18.77-3.2148-100.5823,1.0438-211.4525,54.1444-293.3053,112.4177-45.3053,32.264-94.3661,69.0789-140.4272,100.2569-4.8956,3.3142-11.3236,6.588-16.37,3.4989-6.84-4.1846-3.7284-14.6144.1207-21.6352,30.3157-55.256,71.8011-137.8894,98.3113-195.06,13.4063-28.9151,26.4658-58.5677,30.5385-90.1747,1.7179-13.3759.2208-29.8217-11.769-36.0607-6.9711-3.6287-15.4509-2.4747-22.9774-.2355-38.68,11.5541-64.4433,47.4785-83.8717,82.7963-46.1778,83.9607-107.7956,279.5-148.3531,274.6012-20.6618-23.0971-3.9126-78.753.7727-109.3423,16.3885-106.925,106.5321-301.2371,53.5222-319.5776C308.0465,60.0068,247.6373,199.303,196.21,335.4481Zm208.1714-23.4324a10.7028,10.7028,0,0,1,3.5738-4.4086c20.098-14.6228,35.5764-34.5068,52.9721-52.0145,15.35-15.4534,33.092-30.057,54.26-36.5738,10.222-3.1465,26.0264-5.6746,34.5154,2.8257,10.7666,10.782-.9666,22.292-9.38,29.224A490.49,490.49,0,0,1,411.5764,578.666c-4.329,1.735-9.567-1.9547-10.6459-6.0759A8.3652,8.3652,0,0,1,404.3814,563.4391Zm-23.44,149.0688c18.642-21.4,36.3583-44.1221,60.0932-60.2417,21.234-14.42,46.8541-22.3285,72.488-17.6983,3.419.6117,6.7834,4.82,6.4283,8.2884-.7994,7.85-4.9734,12.11-11.0751,16.6884-5.8918,4.42-11.81,8.8036-17.7151,13.208q-16.8717,12.5716-33.7351,25.1573c-10.4193,7.7674-20.5891,16.7237-32.7324,21.6833-11.1574,4.5612-23.2989,5.719-34.5992,9.854-5.9349,2.17-9.9351-2.2324-10.4278-7.1576A8.6189,8.6189,0,0,1,380.9413,712.5079Zm-123.88-52.5987q15.4452-35.1407,30.0332-70.6541c1.7862-4.3444,5.6092-7.4506,10.61-6.1108,4.113,1.1021,7.9088,6.2676,6.1328,10.5968q-15.4487,37.6647-31.8142,74.9343c-1.8948,4.3032-8.1946,5.2237-11.866,3.0761C255.7872,669.1958,255.1866,664.1821,257.0613,659.9092Z" transform="translate(-196.21 -72.3622)" style="fill-rule:evenodd"></path></svg>