<svg xmlns="http://www.w3.org/2000/svg" id="af444dde-7d7b-456f-8c3b-a914eb66010a" data-name="Layer 1" width="20" height="20" viewBox="0 0 20 20"><g id="abea9f54-a432-4c97-bfeb-aaa86ab38f6c" data-name="Design"><g id="b7102b2e-5c02-483e-8ea3-06b0d1679aa9" data-name="Home"><g id="ad9716a6-245a-4d3a-87e6-0a887a19ca74" data-name="instagram"><path id="bb128401-fb25-4607-9e8c-ad267e2e04e2" data-name="Path" d="M12,10a2,2,0,1,1-2-2A2,2,0,0,1,12,10Z"></path><path id="af995c1a-8dab-4beb-94df-4ee3d1dc6582" data-name="Shape" d="M14.279,6.7627A1.8179,1.8179,0,0,0,13.2373,5.721a3.0359,3.0359,0,0,0-1.0191-.1889C11.6392,5.5057,11.4657,5.5,10,5.5s-1.6393.0055-2.2181.0319a3.0379,3.0379,0,0,0-1.0191.1891A1.8182,1.8182,0,0,0,5.721,6.7627,3.0368,3.0368,0,0,0,5.5321,7.782C5.5057,8.3608,5.5,8.5343,5.5,10s.0057,1.6391.0321,2.2181a3.0359,3.0359,0,0,0,.1889,1.0191A1.8179,1.8179,0,0,0,6.7627,14.279a3.0328,3.0328,0,0,0,1.0193.1891c.5788.0264.7522.0319,2.2179.0319s1.64-.0055,2.2181-.0319a3.0328,3.0328,0,0,0,1.0193-.1891,1.8173,1.8173,0,0,0,1.0417-1.0417,3.04,3.04,0,0,0,.1891-1.0191c.0264-.579.0319-.7525.0319-2.2181s-.0055-1.6393-.0319-2.2181a3.0328,3.0328,0,0,0-.1891-1.0193ZM10,12.8185A2.8186,2.8186,0,1,1,12.8187,10,2.8186,2.8186,0,0,1,10,12.8185Zm2.93-5.09a.6587.6587,0,1,1,.6587-.6587A.6587.6587,0,0,1,12.93,7.7286Z"></path><path id="e4e7a14d-f89d-4bfe-a507-2d161e48ad6b" data-name="Shape" d="M10,0A10,10,0,1,0,20,10,10.0011,10.0011,0,0,0,10,0Zm5.7076,12.3674a4.2137,4.2137,0,0,1-.2669,1.3939,2.9363,2.9363,0,0,1-1.6794,1.6794,4.218,4.218,0,0,1-1.3937.2669c-.6124.0279-.808.0346-2.3674.0346s-1.7551-.0067-2.3676-.0346a4.2175,4.2175,0,0,1-1.3937-.2669A2.9359,2.9359,0,0,1,4.56,13.7613a4.2129,4.2129,0,0,1-.2669-1.3937c-.0282-.6125-.0348-.8082-.0348-2.3676s.0066-1.7551.0346-2.3674a4.214,4.214,0,0,1,.2668-1.3939,2.938,2.938,0,0,1,1.68-1.6794,4.2188,4.2188,0,0,1,1.3939-.2669c.6123-.0279.808-.0346,2.3674-.0346s1.7551.0067,2.3674.0348a4.2171,4.2171,0,0,1,1.3939.2666,2.9372,2.9372,0,0,1,1.6794,1.68,4.2134,4.2134,0,0,1,.267,1.3939c.0279.6123.0345.808.0345,2.3674s-.0066,1.7551-.0346,2.3674Z"></path></g></g></g></svg>