<svg xmlns="http://www.w3.org/2000/svg" id="e164badb-9936-445f-8689-b787a041b19e" data-name="Layer 1" width="645" height="645" viewBox="0 0 645 645"><path d="M30.2612,645H567V573.27a16.9082,16.9082,0,0,1-4.4189-4.7632c-2.1765-3.5877-2.7659-7.8959-3.0119-12.078-.8779-14.9313,2.0444-29.5769,7.4308-43.468V361.93c-3.8528,3.1345-7.8753,6.0589-11.8773,8.7955a426.7888,426.7888,0,0,1-58.1068,33.3553c-9.5742,4.5358-22.5567,8.0827-29.534.002-5.325-6.1678-3.624-15.67-.3094-23.0667,12.0328-26.857,39.5717-43.27,55.4142-68.0347,19.1212-29.89,18.93-69.1176,7.9223-103.08-11.0092-33.9547-31.6284-63.86-51.9648-93.21-8.4439-12.1873-22.6555-25.9756-35.5653-18.933-11.594,6.3214-9.9805,23.197-7.57,36.28,9.1839,49.7885,6.2856,100.8449,3.3526,151.3113-.5318,9.1833-1.2627,18.9374-6.6939,26.3139-11.6065,15.77-38.9694,10.04-49.6631-6.524-10.69-16.563-8.67-38.275-3.0734-57.0917,5.5925-18.8177,14.3762-36.9065,16.1787-56.4863,2.0323-22.0334-4.9784-43.9277-13.3-64.4906-10.07-24.8885-22.7584-49.6719-43.254-66.9812C318.4644,42.7816,288.5707,34.4775,264.4,45.6717a165.341,165.341,0,0,1,51.1005,75.3819c9.4005,28.874,6.9936,67.0753-19.7413,80.9762-3.226,1.6764-6.8379,2.927-10.4541,2.4659-9.6443-1.2279-13.6933-12.7968-15.9678-22.2958A487.7288,487.7288,0,0,0,215.9767,49.5906C202.0372,25.8,181.9092.782,154.5075.0151c-9.9508-.28-20.4722,3.3318-26.25,11.4255-4.9037,6.8728-5.7572,15.863-5.41,24.34,1.77,43.3949,29.7785,81.1079,59.0106,113.3121,29.233,32.2,61.8421,63.53,76.7721,104.3864-25.4177,11.6156-55.25,17.7191-81.3529,7.3549-24.6043-9.7655-41.5938-32.1489-61.7894-49.3522s-50.019-29.5831-72.3644-15.6354C21.24,209.5079,19.2457,243.3779,33.9908,264.797c14.7413,21.4181,41.0458,31.9388,66.641,35.7486,25.5929,3.8113,51.6788,2.1116,77.3673,5.1453A214.7386,214.7386,0,0,1,299.425,362.637c2.6477,2.5066,5.3381,5.2582,6.2959,8.7758,1.6084,5.9188-2.1412,11.8782-6.2221,16.398-18.3424,20.3074-47.8856,29.6917-74.67,23.7239-24.2228-5.3983-44.3635-21.773-66.3864-33.3275a178.2819,178.2819,0,0,0-103.1984-19.082c-7.6164.9111-15.39,2.4042-21.8241,6.5553-15.4715,9.9855-18.1219,33.1654-9.6157,49.6635,8.5037,16.4994,25.259,27.1594,42.3891,34.1551,84.6479,34.5947,191.3317-1.0895,265.3918,52.8153,7.5631,5.5049,15.0736,12.8765,15.6,22.21.4772,8.4435-4.9075,15.95-10.3094,22.4013-18.61,22.2274-44.9812,42.9682-73.6438,38.1974-30.998-5.1592-49.9958-37.3364-78.2163-51.319-38.1453-18.9009-84.1484-1.243-125.7834-9.686-10.4493-2.1148-21.1-5.9015-31.4789-3.604C13.7293,523.6188,4.1392,537.4927,1.69,551.7058s.84,28.7793,4.4776,42.7787C10.9125,612.76,16.971,631.9241,30.2612,645ZM476.0048,512.462l4.2284,7.2628c-3.8135-8.8713.4035-19.1656,5.9888-27.062a81.8411,81.8411,0,0,1,36.7695-28.7821c3.3869-1.32,7.7271-2.2307,10.2467.3769,2.0971,2.175,1.7637,5.67,1.0489,8.61-5.9012,24.3437-26.8024,41.7177-46.4879,57.2634a12.5849,12.5849,0,0,1-5.1,2.8644c-4.3537.87-8.4108-3.2587-9.1511-7.6275C472.8067,520.9969,474.4208,516.6059,476.0048,512.462Zm-99.0395,71.2862c4.1612-2.2109,9.2-1.643,13.8311-.8009a150.2749,150.2749,0,0,1,30.54,8.982c6.5,2.6877,12.9941,5.9758,17.5549,11.3253,4.5595,5.3472,6.7884,13.199,3.8561,19.5954-2.0611,4.5013-6.3,7.6478-10.7333,9.8529A44.7369,44.7369,0,0,1,367.517,597.18l3.524,4.291C369.19,594.8823,370.978,586.9208,376.9653,583.7482Zm-46.78-357.0925c1.83-1.31,3.9258-2.4807,6.1912-2.362,5.6244.3011,7.9711,7.6509,7.8674,13.3612-.1328,7.358-1.7353,14.56-3.509,21.6525-1.11,4.443-2.3534,8.9926-5.13,12.5625-2.7736,3.5748-7.4793,5.9655-11.8739,4.6808-5.5648-1.63-8.2307-7.9787-10.1249-13.5437l4.3681,8.5944C311.4383,255.89,316.7711,236.2682,330.1849,226.6557Zm7.9523,255.3117a66.6348,66.6348,0,0,1-33.7145-11.6227c-6.1318-4.2309-11.5143-9.46-17.448-13.969l3.2876,7.43q-11.6051-6.832-23.21-13.6642c-2.0788-1.2271-4.2681-2.5631-5.38-4.71-1.5584-3.0177-.4626-6.8612,1.7825-9.3791,2.2426-2.5164,5.4076-3.9791,8.5212-5.2619,15.626-6.444,32.789-10.1714,49.5468-7.6173s33.0073,12.079,41.0569,27.0928c3.0155,5.624,4.83,12.36,2.7932,18.3813C361.8778,478.9741,349.012,482.6061,338.1372,481.9674ZM119.0746,562.9837c3.6886-6.6183,13.3143-5.9938,20.6133-3.8821a141.7829,141.7829,0,0,1,51.5881,27.54c1.608,1.3495,3.28,2.8922,3.69,4.9495.7944,3.9949-3.43,7.05-7.2234,8.4292a46.2474,46.2474,0,0,1-42.8722-6.5537l1.3492-.1943a42.3862,42.3862,0,0,1-22.9978-13.4852C119.163,575.1464,116.0945,568.33,119.0746,562.9837Z" transform="translate(78)" style="fill-rule:evenodd"></path><rect width="645" height="645" style="fill:none"></rect></svg>