<svg xmlns="http://www.w3.org/2000/svg" id="efc18020-b856-4b59-86bf-18a3dc05990e" data-name="Layer 1" width="719" height="719" viewBox="0 0 719 719"><path d="M221.8516,454.72C109.6267,392.8447,44.0634,273.1418,0,151.8379v230.56C25.3257,434.5832,56.1259,485.92,69.2883,541.86,45.9329,532.9686,22.3309,523.9386,0,512.7612V719H298.8494c22.5041-29.452,63.9675-39.5861,101.5525-37.2023,39.2182,2.4817,77.0128,15.7975,115.9549,21.2,38.945,5.4209,82.3549,1.4041,110.8418-25.3643,27.1351-25.5,34.384-65.0294,49.9154-98.87-70.5644,36.0488-157.9429,37.845-230.4484,4.7474-31.0438-14.177-61.2461-36.9745-70.3653-69.7761,93.95-22.13,195.82,12.4172,288.2631-15.1935,14.9934-4.4822,30.3634-11.2369,38.9774-24.2553,6.3351-9.5737,8.2147-21.366,9.5268-32.7986a483.848,483.848,0,0,0-1.6577-123.149c-5.5914,43.7643-47.3179,77.1352-91.2878,81.9114-43.9723,4.7908-88.1009-14.6628-121.7847-43.5708-7.8453-6.7348-15.8495-17.5686-10.4685-26.3078,2.1825-3.5395,6.0828-5.5927,9.8315-7.4029,38.5061-18.5938,80.4556-29.4867,118.723-48.55,38.262-19.0668,74.2056-48.8528,86.0032-89.915,12.0478-41.9647-2.6438-89.87,16.292-129.1712A895.4591,895.4591,0,0,1,543.0032,56.405c-37.3141-3.4392-76.0415-9.08-111.3532,3.1122-49.79,17.1961-82.0219,67.4035-92.4777,118.9682-10.4612,51.5607-2.8864,104.9895,4.7172,157.1824-36.3785-3.2686-56.2574-44.2737-62.818-80.1527-15.8031-86.5112.5837-184.37-52.0443-255.1477C202.3146,22.4948,174.97,45.3785,158.3913,75.83c-31.3472,57.5686-17.7715,129.2708,5.1407,191.05S218.2709,389.0718,221.8516,454.72Zm-59.1,91.4775c-1.6684,1.9322-3.79,3.84-6.3563,3.9012a10.3965,10.3965,0,0,1-5.0046-1.6688q-16.974-9.0849-33.9252-18.1782L93.77,488.07c-4.73-18.1708-5.3952-37.1005-6.0265-55.8491,24.9191,9.8982,50.8426,20.4849,68.5046,40.6676S180.1682,525.9341,162.7512,546.197ZM392.5791,214.2059c1.0661-8.4625,6.1851-15.8064,11.761-22.2425,8.2479-9.5287,18.1851-18.1261,30.2676-21.9242,12.0715-3.806,26.58-1.9756,35.6366,7.0144l-.0553,11.7385c9.4052,16.1936.2668,19.6549.5247,38.267.2673,18.6107-12.6291,38.6546-31.306,39.2818-14.06.4774-26.3515-9.76-35.09-20.8632C397.215,236.4594,391.1681,225.494,392.5791,214.2059ZM300.4356,549.3016l1.7561,6.2058q29.0324,17.7643,57.3115,36.7256c9.1858,6.1581,19.4355,14.6941,18.1993,25.5558-.9651,8.4874-9.2341,14.6081-17.7073,15.9207-8.48,1.2993-17.0981-1.1457-25.3068-3.7766-12.8513-4.12-25.76-8.9051-36.469-17.1523-10.705-8.2525-19.0218-20.5354-19.5-33.9205C278.2275,565.4818,287.2281,551.63,300.4356,549.3016Z" style="fill-rule:evenodd"></path><rect width="719" height="719" style="fill:none"></rect></svg>