<svg xmlns="http://www.w3.org/2000/svg" id="e11489a1-f2ac-4fe4-ba46-242d388832e9" data-name="Layer 1" width="396.2076" height="603.3168" viewBox="0 0 396.2076 603.3168"><path d="M393.6294,259.7637c-5.5812-5.87-14.32-7.37-22.4209-7.6757-81.0219-3.0428-145.3488,78.3525-226.4142,79.7589-7.6919.1317-16.9535-1.5339-19.8445-8.6385-2.7235-6.693,1.9686-13.9259,6.5794-19.49,51.1759-61.7324,122.1722-103.4915,181.3937-157.6136,20.9584-19.1592,41.0231-40.7873,50.2153-67.6119,1.2054-3.5155,2.2056-7.4156.8274-10.8681-2.7019-6.7765-6.2437-1.7137-13.5062-.88-71.0156,8.1747-145.4247,53.8409-198.9383,101.0111-29.619,26.1155-61.5534,55.72-91.7875,81.1251-3.2134,2.7005-7.5129,5.4857-11.31,3.6792-5.1465-2.4467-3.724-10.036-1.5265-15.2744,17.3112-41.23,40.4778-102.6031,54.9565-144.9028,7.3216-21.3936,14.3432-43.2819,14.8673-65.8847.2177-9.5649-2.0657-21.0582-11.0051-24.5737-5.1976-2.0449-11.1053-.6035-16.2584,1.533C62.9793,14.47,47.4453,41.723,36.3441,68.08,24.6652,95.8143,12.4765,139.195,0,178.9V509.8922a349.8123,349.8123,0,0,1,46.2922-33.2893c14.4056-8.63,29.943-14.9573,46.8154-9.63,6.8552,2.1583,14.3656,7.0046,10.9235,15.2968-2.9357,7.0638-11.0725,11.7633-17.037,15.9786q-11.4662,8.092-22.9285,16.1885c-6.5638,4.638-13.0884,9.5017-20.47,12.7928C29.49,533.5133,14.3714,530.897,0,527.07v75.3c104.6684,7.5835,182.9263-6.9443,283.0681-57.632,21.8674-11.064,67.6186-24.6067,65.2072-48.9416a15.2475,15.2475,0,0,0-2.7044-7.9158c-6.0368-7.7974-18.2853-2.9954-27.1694,1.3041-45.5709,22.065-99.4436,22.8336-149.1175,12.6842-10.5923-2.1621-37.9659-2.1411-43.9758-11.1063-10.5733-15.7756,19.6669-49.62,34.9041-60.9553,35.4861-26.4079,72.7513-48.14,113.8659-64.5666s71.8035-31.7089,97.9726-67.3076C380.852,285.9667,403.8784,270.5516,393.6294,259.7637ZM35.9429,307.7361a7.5862,7.5862,0,0,1,2.1976-3.3748c13.1162-11.8041,22.5753-26.9786,33.5666-40.6183,9.6984-12.039,21.1508-23.6551,35.6272-29.8187,6.9907-2.9761,17.9731-5.9286,24.6066-.5587,8.4132,6.8114.9774,15.8005-4.4527,21.3138A348.2692,348.2692,0,0,1,42.1628,317.948c-2.93,1.5444-6.9077-.6717-7.9773-3.5A5.9257,5.9257,0,0,1,35.9429,307.7361ZM116.961,367.82c-3.8351,3.5545-7.6913,7.085-11.5374,10.63q-10.9886,10.1179-21.97,20.2454c-6.7859,6.2511-13.3068,13.3227-21.52,17.72-7.5464,4.0434-16.042,5.7582-23.7212,9.5114-4.0332,1.97-7.1887-.84-7.9038-4.2791a6.1056,6.1056,0,0,1,.1726-6.9962c11.5822-16.4781,22.4117-33.8209,37.9871-46.95,13.9342-11.7448,31.4538-19.22,49.9172-17.8482,2.4622.1788,5.1538,2.8993,5.1611,5.3728C123.5656,360.8235,120.9327,364.1378,116.961,367.82Z" transform="translate(0 -0.9375)" style="fill-rule:evenodd;opacity:0.05"></path></svg>