<svg xmlns="http://www.w3.org/2000/svg" id="ffa3e29d-afc8-4b9e-a7f9-bade3677cce1" data-name="Layer 1" width="427" height="427" viewBox="0 0 427 427"><g id="b488bd2c-de3a-485d-9ca8-a24ac2cdfcdb" data-name="Design" style="opacity:0.0516880564391613"><g id="b538236e-a695-4ae1-aaca-447e05675f22" data-name="About"><g id="ede84966-2ff3-4713-8d5e-4f62212e7f1f" data-name="Group-3"><path id="a809f312-0d23-4182-95b1-d4d4e6917d26" data-name="Fill-1" d="M286.1631,312.5769a5.82,5.82,0,0,1-2.6482.6758c-2.0723-.1408-3.4115-2.5229-3.2228-4.6049s1.4439-3.8847,2.6563-5.5774l1.0413,3.8311c-.661-4.5128,2.4783-8.6828,5.949-11.5915a37.8686,37.8686,0,0,1,20.0684-8.5764c1.6891-.1837,3.76-.0628,4.5866,1.4363.6874,1.25.118,2.8012-.5573,4.0526-5.5837,10.3637-17.1127,15.7006-27.8733,20.3544m-46.53-142.2535.9075,4.317a17.8691,17.8691,0,0,1,11.0582-18.5086,4.824,4.824,0,0,1,3.083-.3287c2.4985.7861,2.6484,4.3168,1.8961,6.8363a44.5071,44.5071,0,0,1-4.2571,9.1919,15.4647,15.4647,0,0,1-3.8648,4.974,5.515,5.515,0,0,1-5.9315.6973c-2.3074-1.3685-2.7249-4.4922-2.8914-7.1792m-2.304,99.8839c-2.85,4.275-9.1495,4.3587-14.022,2.7409a31.4074,31.4074,0,0,1-13.93-9.406c-2.2754-2.6746-4.0879-5.7124-6.2392-8.4892l.59,3.7843q-4.45-4.5269-8.9-9.0537a6.1654,6.1654,0,0,1-1.8749-2.8008,4.0766,4.0766,0,0,1,1.9551-4.0528,10.5844,10.5844,0,0,1,4.5207-1.3559c7.899-1.0272,16.1664-.63,23.4834,2.5779s13.5525,9.5274,15.386,17.3455c.6869,2.9286.6914,6.217-.97,8.71M254.4438,349.49a10.2276,10.2276,0,0,1-6.0294,3.163,21.2882,21.2882,0,0,1-18.6951-5.5206,21.6489,21.6489,0,0,1-6.1911-18.6091l1.0782,2.3886c-.0474-3.2284,1.7141-6.6332,4.7991-7.34,2.1449-.4936,4.3535.3864,6.3449,1.3409a70.6336,70.6336,0,0,1,12.7228,7.8562c2.6147,2.0255,5.1552,4.3236,6.5751,7.322s1.4863,6.8475-.6045,9.3986m-74.1123,53.0188c.7335,3.9081-1.4556,7.8979-4.547,10.3562-3.09,2.4592-6.956,3.6763-10.7471,4.7638a284.4583,284.4583,0,0,1-60.0676,10.432c-4.117.2665-8.8682.1867-11.551-2.9829-.9472-1.1193-1.42-3.0241-.2726-3.9235a3.6218,3.6218,0,0,1,2.2952-.4731c11.2229.0433,21.2264-6.8256,29.7-14.2023,4.5805-3.9885,9.0269-8.2575,14.3852-11.0989,10.7818-5.715,23.6954-4.9394,35.8693-4.0183l-7.41,1.6339c5.3964,1.0869,11.3225,4.0659,12.3451,9.5131m-34.4786-97.0035c-.1267,1.918-2.4287,2.7957-4.329,2.9616a21.8486,21.8486,0,0,1-18.7633-8.2163l.64.076a19.9926,19.9926,0,0,1-8.8442-8.9523c-1.2838-2.6105-1.8494-6.0919.1655-8.1658,2.494-2.5672,6.81-1.1086,9.8829.7443a66.884,66.884,0,0,1,20.1708,18.8462,4.4466,4.4466,0,0,1,1.0777,2.7063M425.682,253.88c-5.7333,1.1321-8.7661,7.29-11.1662,12.6488a239.6735,239.6735,0,0,1-35.1451,56.0851c-7.2523,8.6334-15.3238,16.9052-25.3907,21.9219s-22.4981,6.3514-32.4925,1.1093c-2.6792-1.4055-5.2838-3.458-6.1339-6.3753a12.2058,12.2058,0,0,1,.1014-5.8442c2.943-14.3015,13.1711-26.0543,24.7831-34.7733s24.81-15.0356,36.9654-22.9717,23.6315-18.0028,29.2821-31.443,4.05-30.7979-6.8623-40.4813-31.23-7.1276-36.6342,6.4156c-2.7126,6.7981-1.4977,14.7184-4.2832,21.4846-3.73,9.0546-13.5207,13.77-22.71,17a200.2978,200.2978,0,0,1-30.401,8.0648c-4.8925.8933-11.21.9238-13.3928-3.5895-1.6656-3.4449.26-7.5478,2.6616-10.5,8.7186-10.7185,23.2-14.8151,33.3924-24.1214,12.3015-11.2325,16.9795-29.048,16.1135-45.79-.8678-16.739-6.5852-32.81-12.242-48.5939-2.3486-6.5542-7.1182-14.5358-13.8278-12.9109-6.0253,1.4577-7.3435,9.308-7.8395,15.5351-1.8833,23.6987-9.3993,46.5036-16.8594,69.0368-1.3567,4.1-2.8729,8.4358-6.2318,11.1212-7.1787,5.7417-18.8908-.1836-21.728-8.9965-2.8356-8.8119.7179-18.414,5.5413-26.2683,4.8217-7.8551,11.002-14.9917,14.1978-23.6532,3.5979-9.7465,3.0783-20.5292,1.8026-30.8674-1.5435-12.5128-4.2865-25.2961-11.478-35.6386-7.19-10.3415-19.7369-17.742-32.0572-15.6031a77.6638,77.6638,0,0,1,14.0157,40.4026c.7555,14.239-4.9762,31.2731-18.7881,34.3279a8.5092,8.5092,0,0,1-5.04-.1524c-4.2242-1.7294-4.655-7.4689-4.5325-12.0538a229.0955,229.0955,0,0,0-8.0892-66.6336c-3.4312-12.4853-9.52-26.2793-21.8523-29.9583-4.4782-1.3369-9.688-.9776-13.2914,1.9909-3.0585,2.5212-4.5375,6.495-5.41,10.3821-4.4685,19.8975,3.6514,40.4076,12.9953,58.5679,9.3448,18.1587,20.3262,36.333,22.1337,56.6789-12.937,2.1784-27.2064,1.32-37.7841-6.554-9.9709-7.42-14.9561-19.638-22.0245-29.8959s-19.0883-19.4986-30.9154-15.8889c-11.5827,3.5361-16.601,18.6558-12.5164,30.1633,4.083,11.5065,14.7332,19.4761,25.8769,24.3157s23.178,7.24,34.4583,11.739a100.8374,100.8374,0,0,1,48.1451,40.59,9.4791,9.4791,0,0,1,1.789,4.7458c.01,2.88-2.4138,5.1272-4.8134,6.6811a37.2255,37.2255,0,0,1-36.7416,1.6828c-10.3285-5.3932-17.4725-15.2686-26.0556-23.1866a83.7,83.7,0,0,0-44.4789-21.2005c-3.5645-.5127-7.271-.78-10.6927.32-8.2287,2.6481-12.2462,12.84-10.393,21.3565s8.1551,15.3892,15.0731,20.6447c34.1827,25.9813,86.8945,22.7656,113.93,56.2182,2.7609,3.4162,5.2712,7.6727,4.376,11.97-.8092,3.8876-4.1628,6.6379-7.396,8.9071-11.1387,7.8191-25.6166,14.02-38.0345,8.3721-13.43-6.1083-18.1361-23.0122-29.2346-32.785-15.0017-13.21-38.0073-10.7935-55.8618-19.6844-4.4815-2.23-8.851-5.2417-13.8368-5.4615-6.7366-.2966-12.77,4.83-15.6075,10.9791s-3.1148,13.1554-3.1659,19.9471c-.0743,9.6417.4148,19.9555,6.0383,27.7825,3.5981,5.01,8.9541,8.4524,14.4659,11.1708,37.8761,18.692,85.5268,7.8027,122.3772,28.4793,2.508,1.4067,5.3013,3.7682,4.6,6.5632a6.3034,6.3034,0,0,1-2.689,3.27c-14.4336,10.5333-34.126,8.5385-51.8285,6.0821q-45.0182-6.2463-90.0385-12.496c-2.09-.2887-4.3019-.5638-6.2387.266-3.3538,1.4392-4.5929,5.5381-5.1017,9.1763-4.4435,31.6858,16.75,62.0125,42.5318,80.85,9.243,6.7545,19.6828,12.6882,31.0647,13.3147,24.2981,1.3365,42.5827-20.675,63.984-32.24,20.9338-11.3142,45.6169-12.6326,69.3864-13.7089l-3.5332-.6711a64.158,64.158,0,0,0,39.331-8.2708c7.6792-4.4837,14.5582-10.6384,23.0579-13.2308,8.36-2.5523,17.3324-1.3707,26.059-.745a197.1148,197.1148,0,0,0,51.0238-2.9877c15.9749-3.0506,32.82-9.0063,41.6819-22.7164,5.449-8.43,7.1464-18.7418,8.0743-28.7743a235.6858,235.6858,0,0,0-2.5069-62.0365C440.05,263.4582,434.6,252.12,425.682,253.88" transform="translate(-34.5 -31)" style="fill-rule:evenodd"></path></g></g></g><rect width="427" height="427" style="fill:none"></rect></svg>