<svg xmlns="http://www.w3.org/2000/svg" xmlns:xlink="http://www.w3.org/1999/xlink" id="a56616d4-c1eb-4404-9c2a-640457a5f28d" data-name="Layer 1" width="117.9667" height="86.7619" viewBox="0 0 117.9667 86.7619"><defs><mask id="a7eb3c23-132d-42cd-9e36-842f191a66b2" x="46.7368" y="-0.984" width="74.5264" height="81.4918" maskUnits="userSpaceOnUse"><g transform="translate(0 -1.5082)"><g id="f027fc73-b655-4d99-ac30-89472573d50d" data-name="mask-2"><polygon id="b9048e5e-6d93-431f-9d17-2905824f3706" data-name="path-1" points="55.755 0.524 121.263 8.568 112.245 82.016 46.737 73.973 55.755 0.524" style="fill:#fff;fill-rule:evenodd"></polygon></g></g></mask><mask id="b5001890-439c-415a-a670-bac2990416c3" x="0" y="21.7619" width="63" height="65" maskUnits="userSpaceOnUse"><g transform="translate(0 -1.5082)"><g id="b422e495-3cf1-4c36-8d6c-20a9470efe44" data-name="mask-4"><polygon id="b159ab17-cc81-4938-b930-c814a0fb52c9" data-name="path-3" points="63 23.27 0 23.27 0 88.27 63 88.27 63 23.27" style="fill:#fff;fill-rule:evenodd"></polygon></g></g></mask></defs><g id="b99dd1be-b063-4807-a34d-c569d7b1511d" data-name="Design"><g id="bece8754-f5d0-46c5-8a28-89eabafc18b8" data-name="Home"><g id="a544bf72-b3df-41c0-8573-37208d5f3811" data-name="Group-4"><g id="a089f113-cbe8-4a8f-8034-266880a287e4" data-name="1"><g style="mask:url(#a7eb3c23-132d-42cd-9e36-842f191a66b2)"><path id="b174ee38-ac6e-4e87-8833-b7c230f378df" data-name="Fill-1" d="M83.7724,62.0589c-.3218.8475-1.28,1.4354-1.9789,1.9576q-1.3437,1.0023-2.6869,2.0052a14.8077,14.8077,0,0,1-2.4061,1.5939c-1.8227.872-3.8381.4928-5.7257.0381a.7515.7515,0,0,1-.6478-.8114.7777.7777,0,0,1,.6457-.64.7407.7407,0,0,1,.1991-.2868A41.9018,41.9018,0,0,1,76.8,61.6126c1.695-1.0775,3.5364-1.8868,5.59-1.3219.8344.2289,1.76.7733,1.3824,1.7682M74.8032,41.6646a.8925.8925,0,0,1,.2494-.408,38.961,38.961,0,0,0,3.8583-4.9383,11.4782,11.4782,0,0,1,4.1542-3.668c.8279-.3794,2.1362-.7716,2.9583-.1618,1.0426.7736.1879,1.8665-.441,2.54a41.5752,41.5752,0,0,1-9.9853,7.8205.7557.7557,0,0,1-.9755-.3832.6924.6924,0,0,1,.1816-.8014m10.7522,5.2807a1.88,1.88,0,0,1-.7363,1.5163q-.6685.6536-1.341,1.3031-1.2772,1.24-2.5535,2.4817a13.2434,13.2434,0,0,1-2.5107,2.1812c-.89.5079-1.9046.7439-2.8119,1.218a.6583.6583,0,0,1-.97-.4758.7135.7135,0,0,1-.01-.8288,27.6266,27.6266,0,0,1,4.3619-5.7049A8.4847,8.4847,0,0,1,84.91,46.3294a.7374.7374,0,0,1,.645.6159m-20.6919,5A.7413.7413,0,0,1,63.49,51.388q.8832-3.1023,1.6893-6.2259a.7529.7529,0,0,1,.8249-.6306.738.738,0,0,1,.6478.8115q-.8529,3.3124-1.7884,6.6025M59.356,43.564c-.3845,2.6408-.9091,5.2653-1.487,7.87-.2.9064-1.675.7317-1.4727-.1808.5473-2.469,1.0362-4.9535,1.4238-7.4524a13.6834,13.6834,0,0,0-.1844-6.6716c-.3113-.8823,1.0489-1.457,1.3607-.5711a14.5419,14.5419,0,0,1,.36,7.0058m53.5048,18.22c-.7611-.8995-2.2135-.2835-3.2634.26-5.3852,2.7889-11.864,3.0892-17.8862,2.0809-1.2842-.2147-4.5778-.1058-5.3408-1.1437-1.3425-1.8262,2.1457-5.95,3.9287-7.3507a60.1288,60.1288,0,0,1,13.4137-8.0851c4.8741-2.1042,8.4988-4.0324,11.4892-8.3478,1.0058-1.45,3.7079-3.3647,2.4267-4.6018a3.9,3.9,0,0,0-2.732-.8214c-9.7625-.0452-17.1406,9.8393-26.8886,10.3209-.925.0455-2.0468-.1157-2.4262-.9454-.3575-.7817.1749-1.656.7049-2.3326,5.8832-7.506,14.24-12.7248,21.1252-19.3612,2.4366-2.3493,4.7547-4.9873,5.7414-8.1982a1.8508,1.8508,0,0,0,.0512-1.29c-.3552-.7916-.7589-.1785-1.629-.0517-8.5087,1.2437-17.2588,6.9383-23.4881,12.73C84.64,27.8527,80.9289,31.481,77.404,34.6056c-.3746.3321-.88.6785-1.3444.4795-.63-.27-.4928-1.1735-.2517-1.8021,1.9-4.9475,4.4141-12.3021,5.9681-17.3653a25.8232,25.8232,0,0,0,1.4958-7.8563c-.0163-1.133-.3422-2.4846-1.4335-2.8659a2.6973,2.6973,0,0,0-1.95.2446c-3.137,1.4065-4.8849,4.6927-6.1034,7.8556-2.896,7.519-5.75,24.5021-9.2449,24.5609-2.03-1.6847-1.2846-6.5095-1.2579-9.1093.0943-9.0877,5.3795-26.2968.6665-27.2136C59.149.6,54.2858,25.4723,51.4821,38.6928c-1.5069,7.1061-2.4981,12.9551-.4562,19.9489s4.3151,15.7994,11.5814,17.28l2.4545.3014c16.2586,1.5084,26.704.0059,40.5312-7.4654,2.582-1.3946,8.0268-3.1755,7.6284-6.0465a1.7948,1.7948,0,0,0-.3606-.9265" transform="translate(0 -1.5082)" style="fill:#324535;fill-rule:evenodd"></path></g></g><g id="b7549d56-92c9-46d4-8ef5-b123fcfd98bd" data-name="Group-3-Copy"><g style="mask:url(#b5001890-439c-415a-a670-bac2990416c3)"><path id="bbe83899-7b93-4043-b9fb-6a0d1aef5a6b" data-name="Fill-1" d="M34.3877,65.8666c-.1438.226.0846.5244.218.7566a11.52,11.52,0,0,0,2.896,3.0442c2.48,2.0082,3.3615,3.8983,5.9337,5.7875.44.3234,1.0086.6609,1.4973.4161-.1734-.8184-.1263-.1306-.3-.9487l-.099.0769c-2.2959-3.937-5.6817-7.7977-9.6906-9.43-.126-.0511-.3829.1825-.4557.2971ZM45.9946,62.53a31.5675,31.5675,0,0,0-4.312-6.87A10.701,10.701,0,0,0,34.69,51.8783a35.4264,35.4264,0,0,1,3.5969,4.83,22.8871,22.8871,0,0,0,1.7754,2.6705,8.7863,8.7863,0,0,0,5.7346,3.0661Zm8.9808,3.3777a80.16,80.16,0,0,0,1.8,9.6636,3.6336,3.6336,0,0,0,1.4373,2.4763.8.8,0,0,0,.902.0011.9908.9908,0,0,0,.21-.7569q-.0051-1.0815-.0107-2.163l-.0364-.4649a45.7927,45.7927,0,0,0-3.0533-8.6318,1.4665,1.4665,0,0,0-.4937-.6685.5207.5207,0,0,0-.7318.1477.7457.7457,0,0,0-.0237.3964Zm7.814,6.9128a27.33,27.33,0,0,1,.19,4.3489A11.9614,11.9614,0,0,1,60.912,83.736a11.1882,11.1882,0,0,1-6.509,4.0566c-11.2674,2.66-21.014-6.3591-28.7552-13.16-3.4419-3.0243-6.8654-6.07-10.413-8.9707-2.9338-2.3988-5.9521-4.6965-8.8131-7.1822C3.7017,56.1162.8176,53.7442.0588,50.0486a1.6588,1.6588,0,0,1-.0282-.7328,1.3812,1.3812,0,0,1,.8446-.8518A4.42,4.42,0,0,1,3.2774,48.3c5.7183.856,10.9561,4.959,15.5673,8.1638,3.5732,2.4833,8.1932,6.1662,12.7176,6.2925a2.0317,2.0317,0,0,0,1.1691-.2349,1.7508,1.7508,0,0,0,.6485-.9352c.6551-1.9226-.4678-4.0283-1.9476-5.4248-2.187-2.0644-4.6645-3.702-6.7946-5.8618-2.4056-2.4392-4.6572-5.0222-6.93-7.5827-3.24-3.6509-6.5918-7.2162-9.9282-10.791-.29-.31-.6009-.7252-.4365-1.1157a1.0374,1.0374,0,0,1,.8372-.4925,9.8158,9.8158,0,0,1,3.2647.1216,38.6788,38.6788,0,0,1,17.2635,7.7617,62.38,62.38,0,0,1,9.4421,9.5951c2.8282,3.37,10.3523,13.63,9.2405,9.3249-.08-.3077-1.1113-3.6-1.4655-5.5154Q45.2736,48.0777,44.87,44.51a102.4412,102.4412,0,0,1-.6133-14.3243c.0443-1.6155-.2284-7.3847,2.4-6.8855,1.936.3675,2.9718,1.059,3.53,2.85.3615,1.1589.728,2.3159,1.0884,3.4752q1.8578,5.9749,3.6362,11.975c2.7414,9.26,5.5581,18.5938,7.3853,28.0847.1971,1.0241.3688,2.0753.4929,3.1346Z" transform="translate(0 -1.5082)" style="fill-rule:evenodd"></path></g></g></g></g></g></svg>