<svg xmlns="http://www.w3.org/2000/svg" id="b78d9cdf-ae90-4e6d-86f9-e46cedf10519" data-name="Layer 1" width="116.9789" height="122.629" viewBox="0 0 116.9789 122.629"><g id="ec9decf8-5bb3-47dd-98ea-71ea1e8ddd38" data-name="Design"><g id="e27aa162-862a-4ebe-87a0-4d59a859b1ab" data-name="Home"><g id="a20e16cc-128f-4917-a36c-83d5acca4be3" data-name="Group-7"><g id="a89b1e25-b470-454e-96b8-30309a0e3fc9" data-name="Group-3"><path id="ede83bf7-c504-49a3-bf33-b51aff55fd4e" data-name="Fill-1" d="M90.9471,94.7878a1.6782,1.6782,0,0,1-.762.1945,1.1773,1.1773,0,0,1-.9265-1.3221,3.404,3.404,0,0,1,.765-1.6023l.299,1.1a3.924,3.924,0,0,1,1.7131-3.33,10.9156,10.9156,0,0,1,5.7746-2.466c.486-.053,1.0818-.0185,1.3194.4119a1.2574,1.2574,0,0,1-.1609,1.164c-1.6078,2.9773-4.9254,4.5117-8.0217,5.85m-13.3662-40.85.26,1.24a5.137,5.137,0,0,1,3.1839-5.3173,1.39,1.39,0,0,1,.887-.0948c.7187.2254.7613,1.2394.5446,1.9631A12.785,12.785,0,0,1,81.2307,54.37a4.4468,4.4468,0,0,1-1.1125,1.4291A1.5891,1.5891,0,0,1,78.4117,56a2.4391,2.4391,0,0,1-.8308-2.0615m-.6768,28.6876c-.82,1.2282-2.6328,1.2531-4.0344.7892a9.0245,9.0245,0,0,1-4.0062-2.7c-.6542-.7678-1.1752-1.64-1.7938-2.4372l.1694,1.0867q-1.2795-1.2995-2.559-2.599a1.7679,1.7679,0,0,1-.539-.8041,1.1713,1.1713,0,0,1,.563-1.1643,3.0507,3.0507,0,0,1,1.3007-.39,12.77,12.77,0,0,1,6.7556.7371,7.5658,7.5658,0,0,1,4.424,4.98,3.21,3.21,0,0,1-.28,2.5016m4.9125,22.7681a2.9471,2.9471,0,0,1-1.735.9093,6.1267,6.1267,0,0,1-5.3776-1.583,6.2062,6.2062,0,0,1-1.7785-5.3438l.31.6859a2.0558,2.0558,0,0,1,1.3817-2.1086,2.8635,2.8635,0,0,1,1.8252.3842,20.2972,20.2972,0,0,1,3.6591,2.2546,6.1015,6.1015,0,0,1,1.8906,2.102,2.5908,2.5908,0,0,1-.1753,2.6994M60.488,120.6315a3.2184,3.2184,0,0,1-1.31,2.975,8.712,8.712,0,0,1-3.0925,1.37,81.9977,81.9977,0,0,1-17.2822,3.0045c-1.1845.0772-2.5513.0549-3.3227-.855-.2724-.3214-.4081-.8684-.0779-1.1269a1.045,1.045,0,0,1,.66-.1362c3.2287.0109,6.1075-1.9633,8.5463-4.0831a22.989,22.989,0,0,1,4.14-3.19c3.1026-1.6429,6.8176-1.4219,10.32-1.1591l-2.1319.47c1.5524.3114,3.2568,1.1661,3.55,2.73M50.5824,92.7763c-.0368.5509-.6991.8033-1.2459.8512A6.284,6.284,0,0,1,43.94,91.27l.184.0217a5.7384,5.7384,0,0,1-2.5431-2.57,2.1023,2.1023,0,0,1,.0487-2.3453c.7178-.7377,1.9595-.3193,2.8431.2124a19.2022,19.2022,0,0,1,5.8,5.41,1.2749,1.2749,0,0,1,.31.7771M131.0933,77.91c-1.65.326-2.5229,2.095-3.2141,3.6344a68.911,68.911,0,0,1-10.1187,16.1129,23.8449,23.8449,0,0,1-7.3077,6.3,10.456,10.456,0,0,1-9.3479.3231,3.2907,3.2907,0,0,1-1.7637-1.83,3.5,3.5,0,0,1,.03-1.6785c.8487-4.1079,3.7929-7.4848,7.1347-9.9906s7.14-4.3218,10.6377-6.6028,6.8011-5.1738,8.4286-9.0347,1.1694-8.8459-1.9686-11.6255-8.9834-2.0427-10.54,1.8477c-.7813,1.9528-.4329,4.2274-1.2352,6.1711-1.0742,2.6011-3.8917,3.9568-6.5358,4.8858a57.7482,57.7482,0,0,1-8.7471,2.32C95.1375,79,93.32,79.01,92.6927,77.7141a2.9784,2.9784,0,0,1,.7672-3.016c2.51-3.08,6.6765-4.2582,9.61-6.9325,3.5406-3.2277,4.8888-8.3451,4.642-13.1534s-1.89-9.4223-3.5151-13.9548c-.6747-1.8821-2.0458-4.1738-3.9763-3.7062-1.7336.4195-2.1139,2.6744-2.2575,4.4629-.5451,6.8067-2.71,13.3574-4.86,19.83a6.5152,6.5152,0,0,1-1.7943,3.1949c-2.0661,1.65-5.4347-.05-6.25-2.5808s.2091-5.2887,1.5978-7.5452,3.1673-4.3073,4.0879-6.7953c1.0364-2.8.8884-5.8966.5229-8.8656-.4423-3.5935-1.23-7.2646-3.2972-10.234s-5.6756-5.0929-9.22-4.4769a22.2611,22.2611,0,0,1,4.0265,11.6019c.2154,4.09-1.4359,8.9826-5.41,9.8619a2.4518,2.4518,0,0,1-1.45-.0431c-1.215-.4961-1.3382-2.1445-1.3023-3.4613a65.6734,65.6734,0,0,0-2.3179-19.1365c-.9854-3.5854-2.735-7.5462-6.2825-8.6011a4.1913,4.1913,0,0,0-3.8241.5736,5.2473,5.2473,0,0,0-1.5578,2.9826c-1.2883,5.7153,1.0449,11.6048,3.73,16.8192s5.8425,10.4323,6.36,16.2755c-3.7221.6275-7.8272.3829-10.8691-1.8771-2.8675-2.13-4.3-5.6381-6.3321-8.5832s-5.4888-5.5975-8.8918-4.5591c-3.3327,1.0172-4.7785,5.36-3.605,8.6648s4.2358,5.5916,7.4411,6.98,6.667,2.0762,9.9116,3.3668a28.9572,28.9572,0,0,1,13.8452,11.651,2.7175,2.7175,0,0,1,.514,1.3628A2.5258,2.5258,0,0,1,71.3507,69.74a10.7263,10.7263,0,0,1-10.57.4885c-2.9706-1.5476-5.0245-4.3829-7.4927-6.6557A24.07,24.07,0,0,0,40.4945,57.49a6.8864,6.8864,0,0,0-3.0762.0935c-2.3677.7617-3.5249,3.6893-2.993,6.1351a10.71,10.71,0,0,0,4.3335,5.9272c9.83,7.4573,24.9954,6.5264,32.7687,16.13a4.3528,4.3528,0,0,1,1.2573,3.4372,4.5894,4.5894,0,0,1-2.129,2.5592c-3.2056,2.2473-7.3716,4.03-10.9433,2.41C55.85,92.43,54.4981,87.5753,51.3066,84.77c-4.314-3.7919-10.9328-3.0947-16.0681-5.6457-1.289-.64-2.5456-1.5043-3.98-1.5667a5.0562,5.0562,0,0,0-4.4917,3.1555,13.8306,13.8306,0,0,0-.9136,5.7294c-.0227,2.7691.1166,5.7312,1.7333,7.9784a10.8808,10.8808,0,0,0,4.16,3.2063c10.8939,5.3632,24.604,2.2291,35.2026,8.1624.7213.4037,1.5246,1.0815,1.3224,1.8844a1.8139,1.8139,0,0,1-.774.9394c-4.1539,3.0272-9.8189,2.4571-14.9114,1.754q-12.95-1.7877-25.9013-3.5764a3.393,3.393,0,0,0-1.7949.0773,3.1583,3.1583,0,0,0-1.4689,2.6362c-1.2828,9.101,4.81,17.8081,12.2246,23.2148,2.6582,1.9386,5.6608,3.6414,8.9351,3.82,6.99.3805,12.2535-5.9439,18.412-9.2685,6.024-3.2524,13.1253-3.6344,19.9637-3.9469l-1.0164-.1922a18.4943,18.4943,0,0,0,11.3162-2.3809c2.21-1.2889,4.19-3.0575,6.6354-3.8032,2.4055-.7342,4.9865-.3961,7.497-.2176a56.8129,56.8129,0,0,0,14.6794-.8652c4.5962-.8784,9.4432-2.5913,11.9946-6.53,1.5688-2.4219,2.0585-5.3838,2.3269-8.2653a67.5708,67.5708,0,0,0-.7126-17.817c-.4519-2.593-2.0179-5.8486-4.5839-5.3419" transform="translate(-23.2497 -13.9508)" style="fill:#324535;fill-rule:evenodd"></path></g><g id="e368f1af-cf25-42d4-92e6-6b7f3ef06411" data-name="Group-3"><path id="ba550c64-3b66-4a1e-a0ca-a397578464d6" data-name="Fill-1" d="M109.1116,118.2574a1.687,1.687,0,0,1-.7488-.3717,6.0368,6.0368,0,0,1-1.7857-6.1,14.3257,14.3257,0,0,1,3.3062-5.7837,47.9744,47.9744,0,0,1,6.7188-6.5518c1.1481-.919,2.6952-1.823,3.995-1.1416l.7291.5238q-5.18,9.0039-10.36,18.0083c-.414.7191-1.0351,1.546-1.8545,1.4167m-18.5585,5.8685a1.08,1.08,0,0,1-.7478-.1395,6.2206,6.2206,0,0,1-1.9267-1.5376c-1.7774-2.0407-2.512-4.7622-3.1945-7.3812-.6046-2.3224-1.2107-4.6487-1.604-7.0167-.154-.9286-.2021-2.0538.5484-2.6257.8369-.6371,2.0269-.1276,2.9385.3933l.49.4178a8.3131,8.3131,0,0,1,3.2742,5.63c.41,2.1962.3579,4.4568.7183,6.6616.2706,1.6523.7616,3.4042.1029,4.9455a1.05,1.05,0,0,1-.5994.6527M120.46,81.1086c-1.4031-1.01-1.9038-3.4986-.6543-4.7a13.2088,13.2088,0,0,1,2.7318-1.3595q2.076-1.098,4.1507-2.1952a4.42,4.42,0,0,1,3.0757-.7512,2.7852,2.7852,0,0,1,1.8465,2.83,5.4144,5.4144,0,0,1-1.52,3.2473,10.6035,10.6035,0,0,1-6.5368,3.4692,4.3332,4.3332,0,0,1-3.0935-.54m-16.1357.9266a2.0074,2.0074,0,0,1-1.8188-.5991,3.6164,3.6164,0,0,1-.2956-4.7792l-.4882.171a41.7881,41.7881,0,0,1,2.344-4.9389,2.8654,2.8654,0,0,1,1.5434-1.5523,2.16,2.16,0,0,1,2.2158,1.1105,4.87,4.87,0,0,1,.5983,3.3322,10.9146,10.9146,0,0,1-1.1485,3.2521,28.9021,28.9021,0,0,1-1.5665,2.7348,2.6633,2.6633,0,0,1-1.3839,1.2689m31.1174-26.16a15.6829,15.6829,0,0,1-6.9638,2.2548,3.8178,3.8178,0,0,1-2.6142-.5094.7888.7888,0,0,1-.3377-.4644.87.87,0,0,1,.16-.5644,3.0791,3.0791,0,0,1,1.0726-1.2765,3.7617,3.7617,0,0,1,1.2951-.3029,2.4334,2.4334,0,0,0,.5536-.1075c.019-.0072.0377-.0148.0563-.0236.2322-.11.4512-.2649.6766-.3894a22.5945,22.5945,0,0,1,2.8343-1.3192c.0187-.0076.0386-.0153.0579-.0221a2.9828,2.9828,0,0,1,1.4926-.2715A3.191,3.191,0,0,1,135.5,54.1832c.3037.3609.6253.8461.41,1.2673a1.1789,1.1789,0,0,1-.468.4251m-19.0065,58.0155c3.2533-6.1867,5.862-9.1584,9.3747-15.2016,1.6137-2.7755,5.6632-7.6451,3.5892-10.0865-2.4041,1.9739-5.0264,4.038-8.1272,4.2535a7.7026,7.7026,0,0,1-7.3305-4.3142,1.2358,1.2358,0,0,1-.1554-.7857c.1264-.5364.7995-.6963,1.3466-.7568a34.9543,34.9543,0,0,0,11.815-2.967,21.0989,21.0989,0,0,0,11.4482-18.1121c.0144-.8306-.1474-1.8491-.9269-2.135a1.9724,1.9724,0,0,0-1.3038.1123c-1.8658.6446-3.5466,1.7571-5.4232,2.3689s-4.1545.6178-5.5826-.7387a1.5753,1.5753,0,0,1-.56-1.6418,1.7594,1.7594,0,0,1,.7874-.7664c3.85-2.2843,9.07-1.192,12.8062-3.6581a3.12,3.12,0,0,0,1.0239-.99,3.88,3.88,0,0,0,.3813-1.6921q.2542-3.55.5069-7.1026c.1866-2.617.3372-5.4055-.9444-7.6924a1.5143,1.5143,0,0,0-.8284-.8,1.6405,1.6405,0,0,0-1.09.2082c-4.6633,2.143-8.34,6.0428-12.9827,8.23-2.7286,1.2854-5.732,1.9483-8.376,3.4a7.1269,7.1269,0,0,0-3.5045,3.6035c-.8,2.2727.29,4.7175,1.217,6.9367s1.664,4.9142.3054,6.9051a91.4317,91.4317,0,0,1-6.0452-9.5353q-6.5985,8.4569-12.4507,17.461c-2.9268,4.5028-5.8214,9.7731-4.4775,14.9615,1.1278,4.3517,5.1518,8.25,3.9816,12.5954A31.9608,31.9608,0,0,1,86.0541,91.26c-2.9278,4.277-5.8924,8.627-7.5238,13.5433a49.8846,49.8846,0,0,0-2.003,12.9982,29.3634,29.3634,0,0,0,.5344,9.3113l.1053.9728c.5073,1.4869,7.6644,7.9968,9.2341,7.8767a19.94,19.94,0,0,1,4.3826.4674c12.8317,1.7112,19.8453-11.4966,25.6519-22.5381" transform="translate(-23.2497 -13.9508)" style="fill-rule:evenodd"></path></g></g></g></g></svg>