<svg xmlns="http://www.w3.org/2000/svg" xmlns:xlink="http://www.w3.org/1999/xlink" id="b12d8afd-ac9d-4e4f-96ec-7fefeb8de41b" data-name="Layer 1" width="114" height="112" viewBox="0 0 114 112"><defs><mask id="e70544ab-cbb1-4b40-b093-3c2c9f6945bc" x="0" y="0" width="68" height="112" maskUnits="userSpaceOnUse"><g id="abdd9912-a4f2-4176-b9fc-3fcc256096cd" data-name="mask-2"><polygon id="e661dd33-48f4-49ef-94dc-c2989661869f" data-name="path-1" points="68 0 0 0 0 112 68 112 68 0" style="fill:#fff;fill-rule:evenodd"></polygon></g></mask><mask id="be179905-6fa8-4e47-95ac-150046b720e0" x="32" y="22" width="82" height="90" maskUnits="userSpaceOnUse"><g id="a7ac4906-f13e-47c8-986d-3cb03a6b5bea" data-name="mask-4"><polygon id="e4d9104c-dd7a-40f6-a53b-8430b35a345e" data-name="path-3" points="32 22 114 22 114 112 32 112 32 22" style="fill:#fff;fill-rule:evenodd"></polygon></g></mask></defs><g id="ae1edf0b-e326-4681-8d18-2910f6d0fd56" data-name="Group-8"><g id="b85dcf78-be72-4221-8507-0bbb26571b81" data-name="Group-3"><g style="mask:url(#e70544ab-cbb1-4b40-b093-3c2c9f6945bc)"><path id="bd014cd1-0aa2-4379-949e-081123a38d09" data-name="Fill-1" d="M15.6268,17.1385a4.2411,4.2411,0,0,0,.81,1.2323,17.6283,17.6283,0,0,0,5.7671,4.3843,1.0313,1.0313,0,0,0,.55.14c.349-.0425.5532-.4018.6959-.72a4.245,4.245,0,0,0,.4264-1.4007l-.0992-.64q-2.05-1.8819-4.1006-3.7637a5.2485,5.2485,0,0,0-1.9228-1.2967,1.8054,1.8054,0,0,0-2.0751.6346,1.6974,1.6974,0,0,0-.0519,1.431m15.5687,81.19a.3734.3734,0,0,0-.2608.0663.3486.3486,0,0,0-.0846.2117c-.2819,1.8921.7572,3.7129,1.8458,5.2922a3.11,3.11,0,0,0,.7079.8024,3.248,3.248,0,0,0,1.2382.4464,10.1521,10.1521,0,0,0,3.1265.3312,3.4114,3.4114,0,0,0,2.6369-1.5026c.7279-1.2492.2434-2.8407-.4293-4.1205a4.9442,4.9442,0,0,1-.539-1.2571l-.425-.2671q-3.9084-.001-7.8166-.0029M46.7209,67.0413a1.4388,1.4388,0,0,0,1.5244.0029,3.0887,3.0887,0,0,0,1.0679-1.1736,7.8113,7.8113,0,0,0,.9912-2.8594c.0011.0144.0011.0284.0014.0428l-.15,1.3824a3.8589,3.8589,0,0,0,.15-1.3824l.0323-.2955c-.009.0842-.0218.1681-.0337.2527-.1-1.4828-.8612-2.989-1.07-4.5085a3.8013,3.8013,0,0,0-.4686-1.8094,2.96,2.96,0,0,0-1.14-.8006c-.1177-.0569-.2656-.1119-.37-.0338a.3534.3534,0,0,0-.1071.2307,60.7313,60.7313,0,0,0-1.0029,9.0531,2.1673,2.1673,0,0,0,.5757,1.8986M13.04,32.6938a48.5348,48.5348,0,0,1-6.8858-5.5806c-1.5364-1.4976-3.0444-3.2508-3.27-5.3751a10.2763,10.2763,0,0,1,.8743-4.4567q1.4154-3.9641,2.8305-7.9281C7.6674,6.3348,8.7527,3.0473,7.7625,0c1.5056,3.3123,4.3974,5.7678,7.2,8.1088q4.9066,4.0974,9.8122,8.1952a7.97,7.97,0,0,1,2.4342,2.7849,7.8761,7.8761,0,0,1,.4319,3.0071l.0893,7.0461c4.5-1.962,6.5952-7.2953,6.5662-12.1674a34.94,34.94,0,0,0,9.304,21.6427c1.3577,1.45,2.9536,3.4513,1.9482,5.16a4.4088,4.4088,0,0,1-1.46,1.3216q-4.6332,3.07-9.2659,6.1407a4.562,4.562,0,0,0,4.9135,2.0052,10.1254,10.1254,0,0,0,4.83-2.8594c1.5527-1.4681,2.9921-3.2468,3.2471-5.3585a21.2293,21.2293,0,0,1,3.3121,6.7858l-.1754-.7761a18.655,18.655,0,0,0,5.4925,9.1866c.8241.752,1.8044,1.6394,1.6541,2.74a2.9611,2.9611,0,0,1-.7733,1.4252,21.3876,21.3876,0,0,1-7.2472,5.6029,9.3423,9.3423,0,0,0-3.2478,1.9894c-.8361.964-1.0381,2.62-.0352,3.4138.8956.7092,2.2072.3942,3.283,0a40.0967,40.0967,0,0,0,13.0862-7.9c.6712,2.7983,1.2632,6.02-.47,8.327a12.1307,12.1307,0,0,1-4.0168,2.8728,28.795,28.795,0,0,0-6.0921,4.5881,4.654,4.654,0,0,0-1.3962,2.0584A1.7822,1.7822,0,0,0,52.1,87.45q7.95-4.5677,15.9-9.1358a66.1255,66.1255,0,0,0-.4645,11.9607c.1169,2.2586.28,4.7562-1.1351,6.53-1.471,1.8442-4.0966,2.2165-6.4568,2.4508q-4.7181.4693-9.4351.9374c1.657,2.2334,4.6614,3.3919,5.7878,5.9291A5.0894,5.0894,0,0,1,54.7955,112c-.1152-1.8079-1.48-3.48-2.8276-4.8239-1.6-1.5951-3.4062-3.3872-3.3844-5.6364a15.7747,15.7747,0,0,1-5.1475,5.4542c-2.3972,1.7187-5.38,3.2245-8.2122,2.3764a9.888,9.888,0,0,1-3.3833-2.0578c-4.0073-3.3432-9.5771-7.9533-12.2562-12.4143a7.5078,7.5078,0,0,1,2.9028-.8175l2.5065-.5227c2.4332-1.0364,4.6811-.8334,7.1143-1.87-3.4015-.1858-5.7577-.4288-9.1591-.6149a30.4025,30.4025,0,0,0-4.1781.3024,16.4573,16.4573,0,0,1-2.6826.0572c-1.7133-1.675-3.2232-10.1705-2.9925-12.23,0,0,8.2964-.878,8.0389-1.7949-.158-.5634-8.6419-.3265-8.6419-.3265A20.3388,20.3388,0,0,1,10.8513,73.52,14.0583,14.0583,0,0,0,23.06,67.3837,10.9067,10.9067,0,0,1,6.8934,64.4278a28.2876,28.2876,0,0,0,9.8506-4.3106,4.664,4.664,0,0,0,1.6443-1.6523,1.7715,1.7715,0,0,0-.3353-2.1438Q14.611,57.4848,11.17,58.6492a3.9452,3.9452,0,0,1-2.3619.2844A3.1685,3.1685,0,0,1,6.9431,56.383a13.5955,13.5955,0,0,0-.7115-3.2205c1.2949.7488,2.9409.0206,4.1537-.8539s2.4607-1.9544,3.96-1.9238c-2.8272-1.7945-6.7528-1.8633-8.9263-4.3994a10.8883,10.8883,0,0,1-1.8778-4.0992Q1.77,35.9516,0,30.0169a18.4817,18.4817,0,0,0,13.04,2.6769" style="fill:#324535;fill-rule:evenodd"></path></g></g><g id="ea432ebb-229d-4d32-9eea-e954426a2a69" data-name="Group-3"><g style="mask:url(#be179905-6fa8-4e47-95ac-150046b720e0)"><path id="b0b8e581-22bc-4f83-aae5-7ed3e3cce183" data-name="Fill-1" d="M84.0665,79.0987a3.938,3.938,0,0,1-1.482-.5194,1.3572,1.3572,0,0,1-.6271-1.35c.12-.5128.229-1.6263.6486-1.3059q6.4653.0457,12.93.0932a1.9649,1.9649,0,0,1,.87.1387,1.3165,1.3165,0,0,1,.3862,1.7943,3.0639,3.0639,0,0,1-1.626,1.1923c-3.4947,1.3711-7.4217.7107-11.1-.0436m5.52,24.9977a8.5259,8.5259,0,0,1,3.9987.4662,2.3085,2.3085,0,0,1,1.146,1.0191,1.2271,1.2271,0,0,1-.2206,1.4362,1.9534,1.9534,0,0,1-1.2081.3288q-2.76.1245-5.52.25c-3.1988.1452-6.4628.3694-9.2151-1.2653l-.5165-.4746c-.3718.0287.498-1.0669.7473-1.3442s.9224.0191,1.2954.0024q4.7461-.2089,9.493-.4184M73.5954,106.63a3.5805,3.5805,0,0,1-3.078-.5253,5.9021,5.9021,0,0,1-2.2579-1.7674,2.2154,2.2154,0,0,1,.0376-2.6818c.776-.8111,2.0959-.6222,3.1905-.3712,1.3092.4937,1.9243.5559,2.717,1.7088s.6582,3.0428-.6092,3.6369m-8.949-46.3752a21.3075,21.3075,0,0,1-.4071-5.5908c.0239-1.5277-.35-1.73-.327-3.2586.2182-1.1171-.1034-2.2766.0287-3.4068S65,45.6431,66.111,45.8929a2.2928,2.2928,0,0,1,1.1185.7561c2.4653,2.6783,2.6064,6.6666,3.509,10.1936a34.78,34.78,0,0,0,3.3465,7.9415,1.7913,1.7913,0,0,1,.3115.9987,1.4284,1.4284,0,0,1-.8256,1.0125c-1.93,1.0519-4.39.04-5.9768-1.4811a10.7105,10.7105,0,0,1-2.9477-5.0594m-6.18,20.6645a2.9863,2.9863,0,0,1-2.3565-.0311c-2.6781-.98-4.496-4.151-3.5688-6.8477a2.7517,2.7517,0,0,1,2.2812-2.025,2.8353,2.8353,0,0,1,1.4.4076,5.9393,5.9393,0,0,1,2.8856,3.7481l.16.2935c.5547.8738.2355.7621.3718,1.7883a2.5989,2.5989,0,0,1-1.1735,2.6663m43.6961-4.8007.3838-.4751a20.0107,20.0107,0,0,1,3.5964-.36c.84-.0078,1.8454.14,2.2005.9013a1.5508,1.5508,0,0,1-.3145,1.61,3.7881,3.7881,0,0,1-1.4413.9371,4.279,4.279,0,0,1-3.3339.3132c-1.0527-.4614-1.9386-2.15-1.091-2.9263M89.1657,92.1373a39.2592,39.2592,0,0,0,12.1509-.8141,17.0212,17.0212,0,0,0,9.9658-6.6122c3.2258-4.8472,2.8856-11.1469,2.4241-16.95-.1052-1.32-.5236-2.9921-1.8382-3.1582a3.191,3.191,0,0,0-1.8723.615,19.4638,19.4638,0,0,1-17.4832.6443c-.7891-.3694-1.681-1.0555-1.4694-1.9012.1978-.7926,1.195-1.0227,2.008-1.1,4.6813-.4459,9.5474-.8361,13.6292-3.1719s7.1132-7.2631,5.6582-11.7338c-.559-1.7172-2.4247-3.3919-4.0041-2.5175-.9373.5182-1.2667,1.6777-1.9016,2.5408-1.693,2.3-5.1225,2.13-7.9513,1.7243a3.278,3.278,0,0,1-1.7265-.5941,2.6987,2.6987,0,0,1-.7681-1.6054,7.6334,7.6334,0,0,1,2.7475-7.2177c2.2274-1.7428,5.7418-2.6686,6.0832-5.476.2905-2.39-2.0678-4.1934-2.992-6.4162-.8878-2.1367-.71-5.1048-2.7947-6.1119-1.2955-.6252-2.8258-.0909-4.1607.4464q-5.018,2.019-10.0377,4.0392c-2.1753.8756-4.6126,2.03-5.2516,4.2854a7.7757,7.7757,0,0,0,.2786,3.9448q1.3611,5.4921,2.7241,10.9837l-.1674-.165c.5315,1.2492-1.3061,2.3107-2.6159,1.95-2.5018-.6879-3.5629-3.58-4.251-6.0815-.72-2.6173-1.44-5.4079-.639-8.0012-2.9232,2.8-6.89,4.1551-10.584,5.81S56.87,43.4251,55.2645,47.14a15.574,15.574,0,0,0-1.01,6.1126c-.0292,4.9237.7533,10.0447-1.0383,14.6308-3.047-.6868-4.8237-3.87-5.6684-6.8764a26.46,26.46,0,0,1,.1094-14.6105q-2.1377,3.3038-4.276,6.6074a15.068,15.068,0,0,0-2.55,5.4055,13.7414,13.7414,0,0,0,.5272,5.6452,78.24,78.24,0,0,0,12.3183,26.62c-.6827.6886-1.84.3879-2.73.0042A35.0228,35.0228,0,0,1,32,70.3408a64.9649,64.9649,0,0,0,5.71,23.9936c1.2518,2.7649,2.8013,5.5573,5.3425,7.2165,3.7709,2.463,8.8474,1.89,12.8276,3.9985a15.999,15.999,0,0,1-3.57,5.3368c.9971.73,2.295,1.4906,3.3841.9061a3.3132,3.3132,0,0,0,.9374-.8816q2.551-3.1236,5.1022-6.2453c1.3546,3.4284,5.486,4.71,9.1284,5.2806a72.693,72.693,0,0,0,17.9405.569,36.5153,36.5153,0,0,0,13.1-3.316,18.4135,18.4135,0,0,0,9.1756-9.5977,91.0337,91.0337,0,0,1-17.8814.3832c-2.3917-.1853-4.9784-.5589-6.6594-2.27a2.3677,2.3677,0,0,1-.7945-2.23c.39-1.2689,2.0965-1.4195,3.4224-1.3472" style="fill-rule:evenodd"></path></g></g></g></svg>