<svg xmlns="http://www.w3.org/2000/svg" id="a86e3ea2-a3e2-4385-90a7-401739e9088f" data-name="Layer 1" width="721" height="721" viewBox="0 0 721 721"><path d="M721,455.4456c-19.5658-79.6426-43.2189-158.4869-66.4242-236.8847q-21.1768-71.537-43.3451-142.779c-4.2959-13.8216-8.6657-27.6165-12.975-41.4348C591.5968,12.99,579.25,4.7455,556.1711.3637,524.84-5.588,528.09,63.1988,527.5623,82.46a1221.5921,1221.5921,0,0,0,7.3111,170.7905q4.8152,42.4992,12.5917,84.6c4.2219,22.84,16.5212,62.0919,17.4692,65.7608,13.2539,51.33-76.438-71.0029-110.1528-111.1824-34.4307-41.0331-69.9169-81.5373-112.5562-114.4026-60.5184-46.65-129.9681-79.9974-205.791-92.5437-12.8707-2.129-26.0675-3.6755-38.9181-1.45-3.98.6863-8.42,2.1625-9.98,5.8715-1.96,4.6563,1.7513,9.6072,5.2034,13.3028,39.772,42.6231,79.7322,85.1324,118.3512,128.6627,27.0894,30.5287,53.93,61.3254,82.6062,90.408,25.3919,25.752,54.9251,45.2777,80.9961,69.8915,17.64,16.65,31.0256,41.7562,23.2171,64.68-1.4858,4.3583-3.8522,8.643-7.7312,11.15-4.0371,2.611-9.1228,2.9357-13.9364,2.8018-53.9335-1.5063-109.0065-45.4183-151.602-75.0265-54.9688-38.2112-117.4067-87.1308-185.5723-97.3373-9.59-1.436-19.738-1.8913-28.6357,1.9516C5.8914,302.351,1.572,305.762.3653,310.5455c-.7194,2.8487-.2521,5.8581.3361,8.7368,9.0455,44.0626,43.4258,72.3453,75.85,100.5207,34.1047,29.6384,70.0851,57.034,105.0569,85.6346,42.29,34.5792,83.1,70.8991,124.13,106.9579C327.8632,631.8387,351.3669,652.8,376.1616,673H721ZM517.7773,622.2036c-30.6626-22.5251-41.1737-45.06-70.7337-69.0045-13.0556-10.5779-26.1617-21.7451-34.5215-36.2965-1.59-2.7683-4.3126-6.3266-2.5983-9.0213.8672-1.3658,3.9294-4.1509,5.432-3.5416,47.7889,19.4587,88.1491,65.49,115.5175,112.4309l1.18-.9172c2.0672,9.7545,1.5058,1.5532,3.5731,11.3111C529.801,630.0834,523.0245,626.06,517.7773,622.2036Zm28.1449-155.1177a104.7333,104.7333,0,0,1-68.3606-36.5576c-8.1748-9.798-14.4439-21.0019-21.1633-31.841a422.538,422.538,0,0,0-42.8779-57.59c32.3534,2.1859,61.732,21.0254,83.3625,45.0869,21.6339,24.0548,36.6392,53.1609,51.4024,81.9122ZM693.931,653.114c-10.3161-5.6338-14.286-18.1567-17.133-29.5246A955.6291,955.6291,0,0,1,655.3422,508.37a8.8885,8.8885,0,0,1,.2824-4.7266c1.3748-3.0529,5.8622-3.5149,8.7228-1.7608,2.8605,1.7575,4.4605,4.9409,5.8858,7.97A546.1345,546.1345,0,0,1,706.63,612.77l.4336,5.5434q.0656,12.8994.1278,25.7888c.0167,3.2169-.1345,6.8388-2.5077,9.0247C701.8705,655.7149,697.2924,654.9483,693.931,653.114Z" transform="translate(0 48)" style="fill-rule:evenodd"></path><rect width="721" height="721" style="fill:none"></rect></svg>