<svg xmlns="http://www.w3.org/2000/svg" viewBox="0 0 119 118"><path d="M59.801 0a58.152 58.152 0 0 0-24.84 5.539c19.826 9.334 33.557 29.484 33.557 52.85 0 23.367-13.731 43.517-33.557 52.851a58.137 58.137 0 0 0 24.832 5.539c32.254 0 58.397-26.144 58.397-58.397C118.19 26.128 92.047 0 59.801 0Z"></path><path fill-rule="evenodd" clip-rule="evenodd" d="M34.96 5.539c.78.366 1.549.75 2.308 1.15 18.576 9.772 31.25 29.252 31.25 51.7 0 22.45-12.674 41.929-31.25 51.702a58.26 58.26 0 0 1-2.307 1.149 58.178 58.178 0 0 0 24.832 5.539c32.254 0 58.397-26.144 58.397-58.397C118.19 26.128 92.047 0 59.801 0a58.178 58.178 0 0 0-24.84 5.539Zm4.696.171c18.41 10.342 30.862 30.05 30.862 52.68 0 22.629-12.452 42.337-30.862 52.679a56.202 56.202 0 0 0 20.137 3.71c31.15 0 56.397-25.248 56.397-56.397C116.19 27.233 90.943 2 59.801 2a56.205 56.205 0 0 0-20.145 3.71Z"></path><path fill-rule="evenodd" clip-rule="evenodd" d="M83.353 6.318A58.275 58.275 0 0 0 58.483.771C26.182.771 0 26.954 0 59.254s26.182 58.482 58.482 58.482a58.293 58.293 0 0 0 24.871-5.547c-.78-.366-1.549-.75-2.309-1.149-18.606-9.782-31.302-29.3-31.302-51.786 0-22.488 12.697-41.998 31.303-51.786.76-.4 1.53-.783 2.308-1.15Zm-4.696.172a56.29 56.29 0 0 0-20.175-3.719C27.287 2.771 2 28.058 2 59.254c0 31.195 25.287 56.482 56.482 56.482a56.3 56.3 0 0 0 20.173-3.719c-18.44-10.352-30.913-30.097-30.913-52.763 0-22.668 12.474-42.407 30.915-52.764Z"></path><path fill-rule="evenodd" clip-rule="evenodd" d="M60.032 27.34A63.933 63.933 0 0 1 85.258 6.018 63.229 63.229 0 0 0 59.808 0a61.88 61.88 0 0 0-24.847 5.877A62.53 62.53 0 0 1 60.033 27.34Zm.02-3.425a65.948 65.948 0 0 1 20.51-17.742A61.24 61.24 0 0 0 59.81 2.001a59.884 59.884 0 0 0-20.151 4.038A64.556 64.556 0 0 1 60.05 23.915Z"></path></svg>