<svg xmlns="http://www.w3.org/2000/svg" viewBox="0 0 147 122"><path fill-rule="evenodd" clip-rule="evenodd" d="M.048 84.306s0-.002.952-.306c.953-.304.952-.304.952-.305l.001.003.006.017.026.077a23.179 23.179 0 0 0 .653 1.601 37.612 37.612 0 0 0 2.489 4.577c2.382 3.773 6.336 8.755 12.604 13.536 12.517 9.548 34.382 18.381 71.678 14.998l.181 1.992c-37.703 3.42-60.089-5.496-73.072-15.399-6.481-4.945-10.59-10.113-13.082-14.06a39.606 39.606 0 0 1-2.621-4.821 25.13 25.13 0 0 1-.58-1.387 14.514 14.514 0 0 1-.174-.481l-.01-.03-.002-.009-.001-.002Z"></path><path fill-rule="evenodd" clip-rule="evenodd" d="M19.632 86.317c18.432 32.747 59.924 44.346 92.671 25.913 32.747-18.432 44.346-59.924 25.914-92.67l-1.743.98c17.891 31.785 6.632 72.057-25.152 89.947-31.785 17.891-72.057 6.633-89.947-25.151l-1.743.98Z"></path><path fill-rule="evenodd" clip-rule="evenodd" d="m19.205 84.262 112.54-63.358-12.733-1.31L6.467 82.953l12.738 1.31Zm.427 2.055 118.58-66.758-19.627-2.019L0 84.298l19.632 2.019Z"></path><path d="M72.996 49.008c13.534 0 24.505-10.97 24.505-24.504C97.5 10.971 86.53 0 72.996 0 59.463 0 48.492 10.97 48.492 24.504s10.971 24.504 24.504 24.504Z"></path><path fill-rule="evenodd" clip-rule="evenodd" d="M72.996 47.008c12.43 0 22.505-10.075 22.505-22.504C95.5 12.075 85.425 2 72.996 2 60.568 2 50.492 12.075 50.492 24.504c0 12.429 10.076 22.504 22.504 22.504Zm24.505-22.504c0 13.534-10.971 24.504-24.505 24.504-13.533 0-24.504-10.97-24.504-24.504C48.492 10.971 59.463 0 72.996 0 86.53 0 97.501 10.97 97.501 24.504Z"></path></svg>