<svg xmlns="http://www.w3.org/2000/svg" viewBox="0 0 184 140"><path fill-rule="evenodd" clip-rule="evenodd" d="m78.751 73-5.25 18.5 2 14 6.593 11.62H184L116.014 0 84.001 54.5V56l6.5 1.5-10 6-1.75 9.5Zm3.553-8.25-1.603 8.705-5.16 18.183 1.886 13.204 5.832 10.278h97.268L116.004 3.966 86.329 54.485l9.45 2.18-13.475 8.085ZM.343 68.12a1 1 0 0 1 .796-.237l57.15 8.014a1 1 0 0 1 .86.987l.163 61.76a.998.998 0 0 1-1.139.993l-57.23-8.014a1 1 0 0 1-.862-.989L0 68.874a1 1 0 0 1 .343-.755Zm1.659 1.904.078 59.739 55.229 7.733-.157-59.74-55.15-7.732Z"></path><path d="m58.311 138.647 36.913-20.074-.162-61.76-36.913 20.074.162 61.76Z"></path><path fill-rule="evenodd" clip-rule="evenodd" d="M95.572 55.953a1 1 0 0 1 .49.858l.162 61.759a.998.998 0 0 1-.522.881l-36.913 20.074a.997.997 0 0 1-1.478-.876L57.15 76.89a1 1 0 0 1 .523-.881l36.912-20.074a1 1 0 0 1 .988.018ZM59.15 77.481l.156 59.486 34.915-18.988-.156-59.486L59.15 77.481Z"></path><path fill-rule="evenodd" clip-rule="evenodd" d="M37.435 47.921a1 1 0 0 1 .616-.111l57.15 8.013a1 1 0 0 1 .34 1.869L58.627 77.766a1 1 0 0 1-.617.111L.86 69.864a1 1 0 0 1-.339-1.869l36.913-20.074Zm.665 1.915L4.14 68.304l53.822 7.547 33.96-18.468L38.1 49.836Z"></path></svg>