<svg xmlns="http://www.w3.org/2000/svg" width="20" height="20" viewBox="0 0 20 20" fill="none"><path opacity="0.4" d="M17.9163 10.6307V10.2028C17.9163 8.76162 17.9163 7.60645 17.8511 6.66675H2.14825C2.08301 7.60645 2.08301 8.76162 2.08301 10.2028V10.6307C2.08301 14.2618 2.08301 16.0773 3.12644 17.2054C4.16987 18.3334 5.84925 18.3334 9.20801 18.3334H10.7913C14.1501 18.3334 15.8295 18.3334 16.8729 17.2054C17.9163 16.0773 17.9163 14.2618 17.9163 10.6307Z" fill="#0A1007"></path><path fill-rule="evenodd" clip-rule="evenodd" d="M5 1.04175C5.34518 1.04175 5.625 1.32157 5.625 1.66675V1.97163C6.57166 1.87506 7.73652 1.87507 9.15738 1.87508H10.842C12.2632 1.87507 13.4282 1.87506 14.375 1.97169V1.66675C14.375 1.32157 14.6548 1.04175 15 1.04175C15.3452 1.04175 15.625 1.32157 15.625 1.66675V2.19583C16.2955 2.38592 16.861 2.69483 17.3317 3.20372C17.98 3.90454 18.2681 4.79002 18.4061 5.89967C18.5414 6.98701 18.5414 8.38048 18.5413 10.1585V10.675C18.5414 12.453 18.5414 13.8465 18.4061 14.9338C18.2681 16.0435 17.98 16.929 17.3317 17.6298C16.6771 18.3375 15.839 18.6585 14.7903 18.8109C13.7753 18.9584 12.4784 18.9584 10.842 18.9584H10.842H9.15738H9.15733C7.52094 18.9584 6.2241 18.9584 5.20908 18.8109C4.16031 18.6585 3.32229 18.3375 2.66763 17.6298C2.01937 16.929 1.73122 16.0435 1.59322 14.9338C1.45799 13.8465 1.458 12.453 1.45801 10.6751V10.1584C1.458 8.38047 1.45799 6.987 1.59322 5.89967C1.73122 4.79002 2.01937 3.90454 2.66763 3.20372C3.1385 2.69466 3.70423 2.38572 4.375 2.19565V1.66675C4.375 1.32157 4.65482 1.04175 5 1.04175ZM5 3.95841C4.71427 3.95841 4.47332 3.76667 4.3988 3.50484C4.05923 3.6399 3.80143 3.81881 3.58525 4.05252C3.19171 4.47797 2.95845 5.06121 2.83518 6.04175H2.91602H17.0827H17.1642C17.0409 5.06121 16.8076 4.47797 16.4141 4.05252C16.198 3.81895 15.9404 3.64011 15.6011 3.50507C15.5265 3.76679 15.2856 3.95841 15 3.95841C14.6548 3.95841 14.375 3.67859 14.375 3.33341V3.22894C13.4908 3.12638 12.3479 3.12508 10.7913 3.12508H9.20801C7.65184 3.12508 6.50913 3.12638 5.625 3.22887V3.33341C5.625 3.67859 5.34518 3.95841 5 3.95841ZM17.2589 7.29175C17.2909 8.08916 17.2913 9.04242 17.2913 10.2028V10.6307C17.2913 12.4626 17.2902 13.7784 17.1657 14.7796C17.0428 15.7675 16.8093 16.3538 16.4141 16.781C16.0253 17.2013 15.5019 17.4443 14.6105 17.5739C13.6957 17.7069 12.4898 17.7084 10.7913 17.7084H9.20801C7.50957 17.7084 6.30364 17.7069 5.38888 17.5739C4.49741 17.4443 3.97402 17.2013 3.58525 16.781C3.19008 16.3538 2.95652 15.7675 2.83366 14.7796C2.70915 13.7784 2.70801 12.4626 2.70801 10.6307V10.2028C2.70801 9.04242 2.70847 8.08916 2.74044 7.29175H2.91602H17.0827H17.2589ZM5.83301 10.8334C5.83301 10.3732 6.2061 10.0001 6.66634 10.0001H6.67382C7.13406 10.0001 7.50715 10.3732 7.50715 10.8334C7.50715 11.2937 7.13406 11.6667 6.67382 11.6667H6.66634C6.2061 11.6667 5.83301 11.2937 5.83301 10.8334ZM9.1626 10.8334C9.1626 10.3732 9.5357 10.0001 9.99594 10.0001H10.0034C10.4636 10.0001 10.8367 10.3732 10.8367 10.8334C10.8367 11.2937 10.4636 11.6667 10.0034 11.6667H9.99594C9.5357 11.6667 9.1626 11.2937 9.1626 10.8334ZM12.4922 10.8334C12.4922 10.3732 12.8653 10.0001 13.3255 10.0001H13.333C13.7932 10.0001 14.1663 10.3732 14.1663 10.8334C14.1663 11.2937 13.7932 11.6667 13.333 11.6667H13.3255C12.8653 11.6667 12.4922 11.2937 12.4922 10.8334ZM5.83301 14.1667C5.83301 13.7065 6.2061 13.3334 6.66634 13.3334H6.67382C7.13406 13.3334 7.50715 13.7065 7.50715 14.1667C7.50715 14.627 7.13406 15.0001 6.67382 15.0001H6.66634C6.2061 15.0001 5.83301 14.627 5.83301 14.1667ZM9.1626 14.1667C9.1626 13.7065 9.5357 13.3334 9.99594 13.3334H10.0034C10.4636 13.3334 10.8367 13.7065 10.8367 14.1667C10.8367 14.627 10.4636 15.0001 10.0034 15.0001H9.99594C9.5357 15.0001 9.1626 14.627 9.1626 14.1667Z" fill="#0A1007"></path></svg>