<svg xmlns="http://www.w3.org/2000/svg" width="12" height="14" viewBox="0 0 12 14" fill="none"><path opacity="0.4" d="M5.99765 1.16367C4.24311 1.16367 3.10547 2.34141 1.76003 2.77069C1.21297 2.94524 0.939431 3.03252 0.828732 3.15554C0.718033 3.27857 0.685617 3.45835 0.620786 3.81791C-0.0729655 7.6655 1.44339 11.2227 5.0597 12.6072C5.44826 12.756 5.64253 12.8303 5.99956 12.8303C6.35659 12.8303 6.55086 12.7559 6.93939 12.6072C10.5555 11.2226 12.0704 7.66548 11.3764 3.81791C11.3116 3.45829 11.2791 3.27848 11.1684 3.15545C11.0577 3.03242 10.7842 2.94519 10.2372 2.77074C8.89118 2.3415 7.75225 1.16367 5.99765 1.16367Z" fill="white"></path><path fill-rule="evenodd" clip-rule="evenodd" d="M1.89432 3.18749C2.42624 3.01777 2.94447 2.73186 3.4288 2.46464L3.42883 2.46462C3.59973 2.37033 3.76641 2.27837 3.92799 2.19466C4.57639 1.85874 5.22516 1.60117 5.99895 1.60117C6.77281 1.60117 7.42193 1.85878 8.07078 2.19475C8.23244 2.27845 8.3992 2.37041 8.57019 2.46469L8.57023 2.46471C9.05489 2.73195 9.57341 3.01786 10.1055 3.18756C10.385 3.27669 10.5739 3.33716 10.7081 3.38974C10.7965 3.42435 10.8349 3.44622 10.8473 3.45348C10.8519 3.4628 10.8599 3.48202 10.8702 3.51805C10.8929 3.59746 10.9132 3.7071 10.9472 3.89556C11.6128 7.58588 10.1604 10.9059 6.78425 12.1986C6.39672 12.347 6.26944 12.3928 6.00086 12.3928C5.73229 12.3928 5.605 12.347 5.21744 12.1986C1.84091 10.9059 0.387278 7.58573 1.05265 3.89554C1.08662 3.70711 1.1069 3.59749 1.12956 3.5181C1.13984 3.48208 1.14788 3.46286 1.15251 3.45355C1.16488 3.44629 1.2033 3.42441 1.29167 3.38978C1.42591 3.33718 1.61482 3.27667 1.89432 3.18749ZM10.8429 3.44595C10.8429 3.44588 10.8433 3.44635 10.8441 3.44757L10.8429 3.44595ZM1.15691 3.44601L1.15573 3.44764C1.1565 3.44642 1.1569 3.44594 1.15691 3.44601ZM5.99895 0.726166C5.01821 0.726166 4.22089 1.05746 3.52548 1.41774C3.31533 1.52661 3.12011 1.6343 2.93357 1.73721L2.93355 1.73721L2.93355 1.73721C2.47712 1.989 2.0726 2.21215 1.62835 2.35389L1.61353 2.35862C1.3526 2.44187 1.13631 2.51088 0.972428 2.5751C0.818184 2.63554 0.634873 2.71836 0.504811 2.86291C0.38798 2.99276 0.32796 3.13853 0.288164 3.27796C0.252038 3.40453 0.224378 3.55802 0.194753 3.72242L0.191535 3.74028C-0.530597 7.74526 1.04848 11.5394 4.90458 13.0158L4.92377 13.0231L4.92378 13.0231C5.3028 13.1683 5.56274 13.2678 6.00087 13.2678C6.43901 13.2678 6.69894 13.1683 7.07794 13.0231L7.09713 13.0158C10.9531 11.5394 12.5306 7.74509 11.8083 3.74025L11.8051 3.72236L11.8051 3.72234C11.7754 3.55793 11.7478 3.40443 11.7116 3.27786C11.6718 3.13842 11.6118 2.99263 11.4949 2.86278C11.3648 2.71824 11.1815 2.63544 11.0273 2.57502C10.8634 2.51083 10.6471 2.44186 10.3862 2.35866L10.3862 2.35866L10.3714 2.35392C9.92689 2.21217 9.52203 1.98896 9.06525 1.73714L9.06524 1.73713L9.06523 1.73713C8.8786 1.63424 8.68331 1.52657 8.47311 1.41773C7.77735 1.05747 6.9797 0.726166 5.99895 0.726166ZM9.06273 5.66212C9.29049 5.58146 9.40973 5.33143 9.32907 5.10366C9.2484 4.8759 8.99837 4.75666 8.77061 4.83732C8.28349 5.00984 7.81009 5.34226 7.38647 5.71376C6.95833 6.08924 6.55628 6.52681 6.21307 6.93822C5.90381 7.30893 5.63796 7.66369 5.43904 7.94175C5.23885 7.66968 5.04006 7.48673 4.85726 7.36487C4.84226 7.35486 4.82732 7.34462 4.81227 7.3343C4.67942 7.24321 4.53699 7.14556 4.25174 7.14556C4.01011 7.14556 3.8125 7.34143 3.8125 7.58306C3.8125 7.81496 3.99293 8.00472 4.22106 8.01961L4.23007 8.02195C4.25078 8.02787 4.30055 8.04534 4.3719 8.09291C4.51377 8.18749 4.75964 8.41395 5.02535 8.94538C5.09587 9.08641 5.23682 9.17859 5.39429 9.18665C5.55173 9.19471 5.70144 9.11729 5.786 8.98425C5.83796 8.90624 5.99216 8.67487 6.08935 8.53718C6.28404 8.26136 6.5599 7.8884 6.88497 7.49873C7.21088 7.10805 7.58089 6.70708 7.9634 6.37162C8.35045 6.03218 8.72632 5.78127 9.06273 5.66212Z" fill="white"></path></svg>